<?xml version="1.0" encoding="UTF-8" standalone="no"?>
<svg
   xmlns:dc="http://purl.org/dc/elements/1.1/"
   xmlns:cc="http://creativecommons.org/ns#"
   xmlns:rdf="http://www.w3.org/1999/02/22-rdf-syntax-ns#"
   xmlns:svg="http://www.w3.org/2000/svg"
   xmlns="http://www.w3.org/2000/svg"
   xmlns:xlink="http://www.w3.org/1999/xlink"
   xmlns:sodipodi="http://sodipodi.sourceforge.net/DTD/sodipodi-0.dtd"
   xmlns:inkscape="http://www.inkscape.org/namespaces/inkscape"
   version="1.1"
   viewBox="0 0 20 19.999999"
   id="svg213"
   sodipodi:docname="__Assets-Dark-Black.svg"
   width="20"
   height="20">
  <metadata
     id="metadata217">
    <rdf:RDF>
      <cc:Work
         rdf:about="">
        <dc:format>image/svg+xml</dc:format>
        <dc:type
           rdf:resource="http://purl.org/dc/dcmitype/StillImage" />
      </cc:Work>
    </rdf:RDF>
  </metadata>
  <sodipodi:namedview
     pagecolor="#ffffff"
     bordercolor="#666666"
     borderopacity="1"
     objecttolerance="10"
     gridtolerance="10"
     guidetolerance="10"
     inkscape:pageopacity="0"
     inkscape:pageshadow="2"
     inkscape:window-width="640"
     inkscape:window-height="480"
     id="namedview215" />
  <defs
     id="defs27">
    <linearGradient
       id="linearGradient1078">
      <stop
         style="stop-opacity:.149"
         offset="0"
         id="stop2" />
      <stop
         style="stop-opacity:0"
         offset="1"
         id="stop4" />
    </linearGradient>
    <linearGradient
       id="linearGradient1387">
      <stop
         stop-color="#383d4b"
         offset="0"
         id="stop7" />
      <stop
         stop-color="#383d4b"
         offset=".6"
         id="stop9" />
      <stop
         stop-color="#13151a"
         offset="1"
         id="stop11" />
    </linearGradient>
    <clipPath
       id="b">
      <rect
         x="109.41"
         y="196.63"
         width="16"
         height="16"
         opacity="0.3"
         id="rect14" />
    </clipPath>
    <clipPath
       id="a">
      <rect
         x="9.5"
         y="178.85001"
         width="5"
         height="28"
         fill="#ffffff"
         opacity="0.539"
         id="rect17" />
    </clipPath>
    <radialGradient
       id="radialGradient1090-4-5"
       cx="19"
       cy="571.70001"
       r="7.5026002"
       gradientTransform="matrix(1.4225,-5.3748e-7,5.371e-7,1.4225,57.973,-174.87)"
       gradientUnits="userSpaceOnUse"
       xlink:href="#linearGradient1387" />
    <radialGradient
       id="radialGradient1090-7"
       cx="19"
       cy="571.70001"
       r="7.5026002"
       gradientTransform="matrix(1.433,-5.4148e-7,5.4109e-7,1.433,-8.2283,-213.91)"
       gradientUnits="userSpaceOnUse"
       xlink:href="#linearGradient1387" />
    <radialGradient
       id="radialGradient1090-7-3"
       cx="19"
       cy="571.70001"
       r="7.5026002"
       gradientTransform="matrix(1.433,-5.4148e-7,5.4109e-7,1.433,-8.2283,-180.91)"
       gradientUnits="userSpaceOnUse"
       xlink:href="#linearGradient1387" />
    <radialGradient
       id="radialGradient1090-4-5-6"
       cx="19"
       cy="571.70001"
       r="7.5026002"
       gradientTransform="matrix(1.4225,-5.3748e-7,5.371e-7,1.4225,57.973,-207.87)"
       gradientUnits="userSpaceOnUse"
       xlink:href="#linearGradient1387" />
    <linearGradient
       id="linearGradient1080"
       x1="19"
       x2="19"
       y1="562.35999"
       y2="581.25"
       gradientUnits="userSpaceOnUse"
       xlink:href="#linearGradient1078" />
    <linearGradient
       id="linearGradient1080-6"
       x1="19"
       x2="19"
       y1="562.35999"
       y2="581.25"
       gradientTransform="translate(3e-7,33)"
       gradientUnits="userSpaceOnUse"
       xlink:href="#linearGradient1078" />
    <linearGradient
       id="linearGradient1080-62"
       x1="19"
       x2="19"
       y1="562.35999"
       y2="581.25"
       gradientTransform="translate(-2e-7,66)"
       gradientUnits="userSpaceOnUse"
       xlink:href="#linearGradient1078" />
  </defs>
  <g
     id="close-pressed"
     transform="translate(-75,-561.35999)">
    <rect
       x="75"
       y="561.35999"
       width="20"
       height="20"
       fill="#23252e"
       stroke-width="0.71429"
       id="rect97" />
    <path
       d="m 85,562.36 c -4.9638,0 -9,4.0362 -9,9 0,4.9638 4.0362,9 9,9 4.9638,0 9,-4.0362 9,-9 0,-4.9638 -4.0362,-9 -9,-9 z"
       color="#000000"
       color-rendering="auto"
       dominant-baseline="auto"
       fill="#000000"
       image-rendering="auto"
       shape-rendering="auto"
       solid-color="#000000"
       stop-color="#000000"
       style="stroke-width:1.01"
       id="path99" />
    <path
       d="m 81.003,567.36 h 0.99962 c 0.01066,-1.2e-4 0.02079,-4.7e-4 0.03119,0 0.25486,0.0107 0.50967,0.12853 0.68724,0.31248 l 2.2803,2.2812 2.3117,-2.2812 c 0.26552,-0.23049 0.4465,-0.30548 0.68723,-0.31248 h 0.99962 v 0.99997 c 0,0.28646 -0.03425,0.55063 -0.2499,0.74998 l -2.2803,2.2812 2.2491,2.2499 c 0.18812,0.18817 0.28113,0.45344 0.28113,0.71874 v 0.99998 h -0.99962 c -0.26519,-10e-6 -0.53037,-0.0931 -0.71847,-0.28125 l -2.2803,-2.2811 -2.2803,2.2811 c -0.1881,0.18819 -0.45329,0.28125 -0.71849,0.28125 h -0.99962 v -0.99998 c 0,-0.26528 0.09303,-0.53057 0.28115,-0.71874 l 2.2803,-2.2499 -2.2803,-2.2812 c -0.21065,-0.19463 -0.30304,-0.46924 -0.28115,-0.74998 V 567.36 Z"
       color="#bebebe"
       enable-background="new"
       opacity="0.5"
       stroke-width="1.3331"
       id="path101" />
  </g>
</svg>
