<?xml version="1.0" encoding="UTF-8" standalone="no"?>
<!-- Created with Inkscape (http://www.inkscape.org/) -->

<svg
   width="37.041668mm"
   height="10.583333mm"
   viewBox="0 0 37.041668 10.583333"
   version="1.1"
   id="svg5"
   inkscape:version="1.1.1 (3bf5ae0d25, 2021-09-20, custom)"
   sodipodi:docname="metacity-Dark.svg"
   xmlns:inkscape="http://www.inkscape.org/namespaces/inkscape"
   xmlns:sodipodi="http://sodipodi.sourceforge.net/DTD/sodipodi-0.dtd"
   xmlns:xlink="http://www.w3.org/1999/xlink"
   xmlns="http://www.w3.org/2000/svg"
   xmlns:svg="http://www.w3.org/2000/svg">
  <sodipodi:namedview
     id="namedview7"
     pagecolor="#ffffff"
     bordercolor="#111111"
     borderopacity="1"
     inkscape:pageshadow="0"
     inkscape:pageopacity="0"
     inkscape:pagecheckerboard="1"
     inkscape:document-units="mm"
     showgrid="false"
     fit-margin-top="0"
     fit-margin-left="0"
     fit-margin-right="0"
     fit-margin-bottom="0"
     inkscape:zoom="15.662534"
     inkscape:cx="72.338229"
     inkscape:cy="27.709436"
     inkscape:window-width="3440"
     inkscape:window-height="1383"
     inkscape:window-x="1080"
     inkscape:window-y="375"
     inkscape:window-maximized="1"
     inkscape:current-layer="layer1" />
  <defs
     id="defs2">
    <linearGradient
       id="linearGradient4922"
       x1="5"
       x2="5"
       y1="1"
       y2="31"
       gradientUnits="userSpaceOnUse"
       xlink:href="#linearGradient3413"
       gradientTransform="matrix(-0.26458333,0,0,0.26458333,68.193545,116.65912)" />
    <linearGradient
       id="linearGradient4916">
      <stop
         style="stop-color:#181a1f;stop-opacity:1"
         offset="0"
         id="stop2369" />
      <stop
         style="stop-color:#d9d9d9"
         offset=".92857"
         id="stop2371" />
      <stop
         style="stop-color:#c2c2c2"
         offset=".96429"
         id="stop2373" />
      <stop
         style="stop-color:#c2c2c2"
         offset="1"
         id="stop2375" />
    </linearGradient>
    <linearGradient
       id="linearGradient3413"
       x1="5"
       x2="5"
       y1="1"
       y2="31"
       gradientUnits="userSpaceOnUse">
      <stop
         style="stop-color:#0f1116"
         offset="0"
         id="stop65" />
      <stop
         style="stop-color:#0f1116"
         offset=".93333"
         id="stop67" />
      <stop
         offset=".96719"
         id="stop69" />
      <stop
         offset="1"
         id="stop71" />
    </linearGradient>
    <linearGradient
       id="linearGradient1080"
       x1="19"
       x2="19"
       y1="562.35999"
       y2="581.25"
       gradientUnits="userSpaceOnUse"
       xlink:href="#linearGradient1168" />
    <linearGradient
       id="linearGradient1168">
      <stop
         style="stop-opacity:.05"
         offset="0"
         id="stop2" />
      <stop
         style="stop-opacity:0"
         offset="1"
         id="stop4" />
    </linearGradient>
    <linearGradient
       id="linearGradient1080-2"
       x1="19"
       x2="19"
       y1="562.35999"
       y2="581.25"
       gradientTransform="translate(2.7e-7,33)"
       gradientUnits="userSpaceOnUse"
       xlink:href="#linearGradient1168" />
    <linearGradient
       id="linearGradient1080-7"
       x1="19"
       x2="19"
       y1="562.35999"
       y2="581.25"
       gradientTransform="translate(-2.9e-7,66)"
       gradientUnits="userSpaceOnUse"
       xlink:href="#linearGradient1168" />
    <filter
       inkscape:collect="always"
       style="color-interpolation-filters:sRGB"
       id="filter2730"
       x="-0.059994828"
       y="-0.14558804"
       width="1.1199897"
       height="1.2911761">
      <feGaussianBlur
         inkscape:collect="always"
         stdDeviation="1.0663738"
         id="feGaussianBlur2732" />
    </filter>
    <linearGradient
       id="linearGradient1080-3"
       x1="19"
       x2="19"
       y1="562.35999"
       y2="581.25"
       gradientUnits="userSpaceOnUse"
       xlink:href="#linearGradient1078" />
    <linearGradient
       id="linearGradient1078">
      <stop
         style="stop-opacity:.149"
         offset="0"
         id="stop2-6" />
      <stop
         style="stop-opacity:0"
         offset="1"
         id="stop4-7" />
    </linearGradient>
    <linearGradient
       id="linearGradient1080-6"
       x1="19"
       x2="19"
       y1="562.35999"
       y2="581.25"
       gradientTransform="translate(3e-7,33)"
       gradientUnits="userSpaceOnUse"
       xlink:href="#linearGradient1078" />
    <linearGradient
       id="linearGradient1080-62"
       x1="19"
       x2="19"
       y1="562.35999"
       y2="581.25"
       gradientTransform="translate(-2e-7,66)"
       gradientUnits="userSpaceOnUse"
       xlink:href="#linearGradient1078" />
  </defs>
  <g
     inkscape:label="Capa 1"
     inkscape:groupmode="layer"
     id="layer1"
     transform="translate(-58.091572,-117.34314)">
    <rect
       style="opacity:1;fill:#ffffff;fill-opacity:1;stroke-width:7.93749;stroke-linecap:round;stroke-linejoin:round"
       id="rect10022"
       width="37.041668"
       height="10.583333"
       x="58.091572"
       y="117.34314" />
    <g
       id="g9695"
       transform="translate(0,0.2364985)" />
    <g
       id="g10474"
       transform="translate(0.02888259,1.7423574)">
      <rect
         style="opacity:0.8;fill:#000000;fill-opacity:1;stroke:none;stroke-width:7.9375;stroke-linecap:round;stroke-linejoin:round;filter:url(#filter2730)"
         id="rect2558"
         width="42.65863"
         height="17.579035"
         x="49.939217"
         y="118.31509"
         rx="2.1166666"
         ry="2.1166666" />
      <rect
         style="opacity:1;fill:#23252e;stroke:none;stroke-width:7.9375;stroke-linecap:round;stroke-linejoin:round;fill-opacity:1"
         id="rect1104"
         width="42.65863"
         height="17.579035"
         x="49.939217"
         y="118.17174"
         rx="2.1166666"
         ry="2.1166666" />
    </g>
    <g
       id="close-active-5"
       transform="matrix(0.26458333,0,0,0.26458333,83.79127,-27.590747)"
       style="opacity:1">
      <rect
         x="9"
         y="561.35999"
         width="20"
         height="20"
         fill="#23252e"
         stroke-width="0.71429"
         id="rect80" />
      <path
         d="m 19,563.36 c -4.9637,0 -9,4.0363 -9,9 0,4.9638 4.0363,9 9,9 4.9637,0 9,-4.0363 9,-9 0,-4.9637 -4.0363,-9 -9,-9 z"
         color="#000000"
         color-rendering="auto"
         dominant-baseline="auto"
         fill="#2777ff"
         image-rendering="auto"
         shape-rendering="auto"
         solid-color="#000000"
         stop-color="#000000"
         style="opacity:0.05;fill:#ffffff;stroke-width:1.01"
         id="path82" />
      <path
         d="m 19,562.36 c -4.9637,0 -9,4.0363 -9,9 0,4.9638 4.0363,9 9,9 4.9637,0 9,-4.0363 9,-9 0,-4.9637 -4.0363,-9 -9,-9 z"
         color="#000000"
         color-rendering="auto"
         dominant-baseline="auto"
         fill="#2777ff"
         image-rendering="auto"
         shape-rendering="auto"
         solid-color="#000000"
         stop-color="#000000"
         style="stroke-width:1.01"
         id="path84" />
      <path
         d="m 19,563.36 c -4.4122,0 -8,3.5878 -8,8 0,4.4123 3.5878,8 8,8 4.4122,0 8,-3.5878 8,-8 0,-4.4122 -3.5878,-8 -8,-8 z"
         color="#000000"
         color-rendering="auto"
         dominant-baseline="auto"
         fill="#2777ff"
         image-rendering="auto"
         shape-rendering="auto"
         solid-color="#000000"
         stop-color="#000000"
         style="fill:url(#linearGradient1080-3);stroke-width:0.889"
         id="path88" />
      <path
         d="m 15.003,567.36 h 0.99968 c 0.01066,-1.4e-4 0.02079,-4.8e-4 0.0312,0 0.25487,0.0107 0.5097,0.12853 0.68728,0.31249 l 2.2804,2.2813 2.3118,-2.2813 c 0.26553,-0.23051 0.44652,-0.3055 0.68727,-0.31249 h 0.99968 v 1 c 0,0.28648 -0.03426,0.55066 -0.24991,0.75002 l -2.2804,2.2813 2.2492,2.25 c 0.18813,0.18818 0.28115,0.45345 0.28115,0.71877 v 1 h -0.99968 c -0.2652,-10e-6 -0.5304,-0.093 -0.71851,-0.28128 l -2.2804,-2.2812 -2.2804,2.2812 c -0.1881,0.18821 -0.45332,0.28128 -0.71853,0.28128 h -0.99968 v -1 c 0,-0.2653 0.09303,-0.53059 0.28117,-0.71877 l 2.2804,-2.25 -2.2804,-2.2813 c -0.21066,-0.19464 -0.30305,-0.46926 -0.28117,-0.75002 v -1 z"
         color="#bebebe"
         enable-background="new"
         stroke-width="1.3332"
         id="path86"
         style="fill:#c21953;fill-opacity:1" />
    </g>
    <g
       id="maximize-active-3"
       transform="matrix(0.26458333,0,0,0.26458333,77.416265,-36.321994)"
       style="opacity:1">
      <rect
         x="9"
         y="594.35999"
         width="20"
         height="20"
         fill="#23252e"
         stroke-width="0.71429"
         id="rect112" />
      <path
         d="m 19,596.36 c -4.9637,0 -9,4.0363 -9,9 0,4.9638 4.0363,9 9,9 4.9637,0 9,-4.0363 9,-9 0,-4.9637 -4.0363,-9 -9,-9 z"
         color="#000000"
         color-rendering="auto"
         dominant-baseline="auto"
         fill="#2777ff"
         image-rendering="auto"
         shape-rendering="auto"
         solid-color="#000000"
         stop-color="#000000"
         style="opacity:0.05;fill:#ffffff;stroke-width:1.01"
         id="path114" />
      <path
         d="m 19,595.86 c -4.6944,0 -8.5,3.8056 -8.5,8.5 0,4.6945 3.8056,8.5 8.5,8.5 4.6944,0 8.5,-3.8056 8.5,-8.5 0,-4.6944 -3.8056,-8.5 -8.5,-8.5 z"
         fill="url(#radialGradient1090-7)"
         stroke="#020202"
         style="fill:#383d4b;stroke:#000000"
         id="path116" />
      <path
         d="m 19,596.36 c -4.4122,0 -8,3.5878 -8,8 0,4.4123 3.5878,8 8,8 4.4122,0 8,-3.5878 8,-8 0,-4.4122 -3.5878,-8 -8,-8 z"
         color="#000000"
         color-rendering="auto"
         dominant-baseline="auto"
         fill="#2777ff"
         image-rendering="auto"
         shape-rendering="auto"
         solid-color="#000000"
         stop-color="#000000"
         style="fill:url(#linearGradient1080-6);stroke-width:0.889"
         id="path118" />
    </g>
    <g
       id="hide-active-5"
       transform="matrix(0.26458333,0,0,0.26458333,71.041262,-45.053244)"
       style="opacity:1">
      <rect
         x="9"
         y="627.35999"
         width="20"
         height="20"
         fill="#23252e"
         stroke-width="0.71429"
         id="rect140" />
      <path
         d="m 19,629.36 c -4.9637,0 -9,4.0363 -9,9 0,4.9638 4.0363,9 9,9 4.9637,0 9,-4.0363 9,-9 0,-4.9637 -4.0363,-9 -9,-9 z"
         color="#000000"
         color-rendering="auto"
         dominant-baseline="auto"
         fill="#2777ff"
         image-rendering="auto"
         shape-rendering="auto"
         solid-color="#000000"
         stop-color="#000000"
         style="opacity:0.05;fill:#ffffff;stroke-width:1.01"
         id="path142" />
      <path
         d="m 19,628.86 c -4.6944,0 -8.5,3.8056 -8.5,8.5 0,4.6945 3.8056,8.5 8.5,8.5 4.6944,0 8.5,-3.8056 8.5,-8.5 0,-4.6944 -3.8056,-8.5 -8.5,-8.5 z"
         fill="url(#radialGradient1090-7-3)"
         stroke="#020202"
         style="fill:#383d4b;stroke:#000000"
         id="path144" />
      <path
         d="m 19,629.36 c -4.4122,0 -8,3.5878 -8,8 0,4.4123 3.5878,8 8,8 4.4122,0 8,-3.5878 8,-8 0,-4.4122 -3.5878,-8 -8,-8 z"
         color="#000000"
         color-rendering="auto"
         dominant-baseline="auto"
         fill="#2777ff"
         image-rendering="auto"
         shape-rendering="auto"
         solid-color="#000000"
         stop-color="#000000"
         style="fill:url(#linearGradient1080-62);stroke-width:0.889"
         id="path146" />
    </g>
  </g>
</svg>
