<svg version="1.1" viewBox="0 0 108 217.35" xmlns="http://www.w3.org/2000/svg" xmlns:xlink="http://www.w3.org/1999/xlink">
  <defs>
    <clipPath id="b">
      <rect x="109.41" y="196.63" width="16" height="16" style="opacity:.3;paint-order:normal"/>
    </clipPath>
    <clipPath id="a">
      <rect x="9.5" y="178.85" width="5" height="28" style="fill:#fff;opacity:.539;paint-order:normal"/>
    </clipPath>
  </defs>
  <g id="close-active" transform="translate(-.99995 -553.36)">
    <rect x="11" y="563.36" width="16" height="16" style="fill:#fff;stroke-width:.57143"/>
    <path d="m15.003 567.36h0.99962c0.01066-1.2e-4 0.02079-4.7e-4 0.03119 0 0.25486 0.0107 0.50967 0.12853 0.68724 0.31248l2.2803 2.2812 2.3117-2.2812c0.26552-0.23049 0.4465-0.30548 0.68723-0.31248h0.99962v0.99997c0 0.28646-0.03425 0.55063-0.2499 0.74998l-2.2803 2.2812 2.2491 2.2499c0.18812 0.18817 0.28113 0.45344 0.28113 0.71874v0.99998h-0.99962c-0.26519-1e-5 -0.53037-0.0931-0.71847-0.28125l-2.2803-2.2811-2.2803 2.2811c-0.1881 0.18819-0.45329 0.28125-0.71849 0.28125h-0.99962v-0.99998c0-0.26528 0.09303-0.53057 0.28115-0.71874l2.2803-2.2499-2.2803-2.2812c-0.21065-0.19463-0.30304-0.46924-0.28115-0.74998v-0.99997z" style="color:#bebebe;enable-background:new;fill:#5c616c;stroke-width:1.3331;text-decoration-line:none;text-indent:0;text-transform:none"/>
  </g>
  <g id="close-prelight" transform="translate(-13 -553.36)">
    <rect x="44" y="563.36" width="16" height="16" style="fill:#fff;stroke-width:.57143"/>
    <path d="m52 564.12c-4.0007 0-7.2439 3.242-7.2439 7.2413s3.2432 7.2413 7.2439 7.2413 7.2439-3.242 7.2439-7.2413-3.2432-7.2413-7.2439-7.2413z" style="fill:#fff;opacity:.7;stroke-width:.51733;stroke:#5c616c"/>
    <path d="m48.003 567.36h0.99962c0.01066-1.2e-4 0.02079-4.7e-4 0.03119 0 0.25486 0.0107 0.50967 0.12853 0.68724 0.31248l2.2803 2.2812 2.3117-2.2812c0.26552-0.23049 0.4465-0.30548 0.68723-0.31248h0.99962v0.99997c0 0.28646-0.03425 0.55063-0.2499 0.74998l-2.2803 2.2812 2.2491 2.2499c0.18812 0.18817 0.28113 0.45344 0.28113 0.71874v0.99998h-0.99962c-0.26519-1e-5 -0.53037-0.0931-0.71847-0.28125l-2.2803-2.2811-2.2803 2.2811c-0.1881 0.18819-0.45329 0.28125-0.71849 0.28125h-0.99962v-0.99998c0-0.26528 0.09303-0.53057 0.28115-0.71874l2.2803-2.2499-2.2803-2.2812c-0.21065-0.19463-0.30304-0.46924-0.28115-0.74998v-0.99997z" style="color:#bebebe;enable-background:new;fill:#5c616c;stroke-width:1.3331;text-decoration-line:none;text-indent:0;text-transform:none"/>
  </g>
  <g id="close-pressed" transform="translate(-25 -553.36)">
    <rect x="77" y="563.36" width="16" height="16" style="fill:#fff;stroke-width:.57143"/>
    <path d="m85 564.12c-4.0007 0-7.2439 3.242-7.2439 7.2413s3.2432 7.2413 7.2439 7.2413 7.2439-3.242 7.2439-7.2413-3.2432-7.2413-7.2439-7.2413z" style="opacity:.08;stroke-width:.51733;stroke:#000"/>
    <path d="m81.003 567.36h0.99962c0.01066-1.2e-4 0.02079-4.7e-4 0.03119 0 0.25486 0.0107 0.50967 0.12853 0.68724 0.31248l2.2803 2.2812 2.3117-2.2812c0.26552-0.23049 0.4465-0.30548 0.68723-0.31248h0.99962v0.99997c0 0.28646-0.03425 0.55063-0.2499 0.74998l-2.2803 2.2812 2.2491 2.2499c0.18812 0.18817 0.28113 0.45344 0.28113 0.71874v0.99998h-0.99962c-0.26519-1e-5 -0.53037-0.0931-0.71847-0.28125l-2.2803-2.2811-2.2803 2.2811c-0.1881 0.18819-0.45329 0.28125-0.71849 0.28125h-0.99962v-0.99998c0-0.26528 0.09303-0.53057 0.28115-0.71874l2.2803-2.2499-2.2803-2.2812c-0.21065-0.19463-0.30304-0.46924-0.28115-0.74998v-0.99997z" style="color:#bebebe;enable-background:new;fill:#5c616c;stroke-width:1.3331;text-decoration-line:none;text-indent:0;text-transform:none"/>
  </g>
  <g id="close-inactive" transform="translate(-37 -553.36)">
    <rect x="110" y="563.36" width="16" height="16" style="fill:#fff;stroke-width:.57143"/>
    <path d="m114 567.36h0.99962c0.0107-1.2e-4 0.0208-4.7e-4 0.0312 0 0.25486 0.0107 0.50967 0.12853 0.68724 0.31248l2.2803 2.2812 2.3116-2.2812c0.26553-0.23049 0.4465-0.30548 0.68723-0.31248h0.99962v0.99997c0 0.28646-0.0343 0.55063-0.2499 0.74998l-2.2803 2.2812 2.2491 2.2499c0.18811 0.18817 0.28113 0.45344 0.28113 0.71874v0.99998h-0.99962c-0.26519-1e-5 -0.53037-0.0931-0.71847-0.28125l-2.2803-2.2811-2.2803 2.2811c-0.1881 0.18819-0.45329 0.28125-0.71849 0.28125h-0.99962v-0.99998c0-0.26528 0.093-0.53057 0.28115-0.71874l2.2803-2.2499-2.2803-2.2812c-0.21065-0.19463-0.30304-0.46924-0.28115-0.74998v-0.99997z" style="color:#bebebe;enable-background:new;fill:#5c616c;opacity:.5;stroke-width:1.3331;text-decoration-line:none;text-indent:0;text-transform:none"/>
  </g>
  <g id="maximize-active" transform="translate(-.99995 -565.36)">
    <rect x="11" y="596.36" width="16" height="16" style="fill:#fff;stroke-width:.57143"/>
    <path d="m15 600.36v8h8v-8zm1.9942 2h4.0117v4h-4.0117z" style="color-rendering:auto;color:#000000;dominant-baseline:auto;fill:#5c616c;font-feature-settings:normal;font-variant-alternates:normal;font-variant-caps:normal;font-variant-ligatures:normal;font-variant-numeric:normal;font-variant-position:normal;image-rendering:auto;isolation:auto;mix-blend-mode:normal;paint-order:fill markers stroke;shape-padding:0;shape-rendering:auto;solid-color:#000000;text-decoration-color:#000000;text-decoration-line:none;text-decoration-style:solid;text-indent:0;text-orientation:mixed;text-transform:none;white-space:normal"/>
  </g>
  <g id="maximize-prelight" transform="translate(-13 -565.36)">
    <rect x="44" y="596.36" width="16" height="16" style="fill:#fff;stroke-width:.57143"/>
    <path d="m52 597.12a7.2439 7.2413 0 0 0-7.2439 7.2413 7.2439 7.2413 0 0 0 7.2439 7.2413 7.2439 7.2413 0 0 0 7.2439-7.2413 7.2439 7.2413 0 0 0-7.2439-7.2413z" style="fill:none;opacity:.7;stroke-width:.51733;stroke:#5c616c"/>
    <path d="m48 600.36v8h8v-8zm1.9942 2h4.0117v4h-4.0117z" style="color-rendering:auto;color:#000000;dominant-baseline:auto;fill:#5c616c;font-feature-settings:normal;font-variant-alternates:normal;font-variant-caps:normal;font-variant-ligatures:normal;font-variant-numeric:normal;font-variant-position:normal;image-rendering:auto;isolation:auto;mix-blend-mode:normal;paint-order:fill markers stroke;shape-padding:0;shape-rendering:auto;solid-color:#000000;text-decoration-color:#000000;text-decoration-line:none;text-decoration-style:solid;text-indent:0;text-orientation:mixed;text-transform:none;white-space:normal"/>
  </g>
  <g id="maximize-pressed" transform="translate(-25 -565.36)">
    <rect x="77" y="596.36" width="16" height="16" style="fill:#fff;stroke-width:.57143"/>
    <path d="m85 597.12a7.2439 7.2413 0 0 0-7.2439 7.2413 7.2439 7.2413 0 0 0 7.2439 7.2413 7.2439 7.2413 0 0 0 7.2439-7.2413 7.2439 7.2413 0 0 0-7.2439-7.2413z" style="opacity:.08;stroke-width:.51733;stroke:#000"/>
    <path d="m81 600.36v8h8v-8zm1.9942 2h4.0117v4h-4.0117z" style="color-rendering:auto;color:#000000;dominant-baseline:auto;fill:#5c616c;font-feature-settings:normal;font-variant-alternates:normal;font-variant-caps:normal;font-variant-ligatures:normal;font-variant-numeric:normal;font-variant-position:normal;image-rendering:auto;isolation:auto;mix-blend-mode:normal;paint-order:fill markers stroke;shape-padding:0;shape-rendering:auto;solid-color:#000000;text-decoration-color:#000000;text-decoration-line:none;text-decoration-style:solid;text-indent:0;text-orientation:mixed;text-transform:none;white-space:normal"/>
  </g>
  <g id="maximize-inactive" transform="translate(-37 -565.36)">
    <rect x="110" y="596.36" width="16" height="16" style="fill:#fff;stroke-width:.57143"/>
    <path d="m114 600.36v8h8v-8zm1.9942 2h4.0117v4h-4.0117z" style="color-rendering:auto;color:#000000;dominant-baseline:auto;fill:#5c616c;font-feature-settings:normal;font-variant-alternates:normal;font-variant-caps:normal;font-variant-ligatures:normal;font-variant-numeric:normal;font-variant-position:normal;image-rendering:auto;isolation:auto;mix-blend-mode:normal;opacity:.5;paint-order:fill markers stroke;shape-padding:0;shape-rendering:auto;solid-color:#000000;text-decoration-color:#000000;text-decoration-line:none;text-decoration-style:solid;text-indent:0;text-orientation:mixed;text-transform:none;white-space:normal"/>
  </g>
  <g id="hide-active" transform="translate(-.99995 -577.36)">
    <rect x="11" y="629.36" width="16" height="16" style="fill:#fff;stroke-width:.57143"/>
    <path d="m15 639.36v2h8v-2" style="color-rendering:auto;color:#000000;dominant-baseline:auto;fill:#5c616c;font-feature-settings:normal;font-variant-alternates:normal;font-variant-caps:normal;font-variant-ligatures:normal;font-variant-numeric:normal;font-variant-position:normal;image-rendering:auto;isolation:auto;mix-blend-mode:normal;paint-order:fill markers stroke;shape-padding:0;shape-rendering:auto;solid-color:#000000;text-decoration-color:#000000;text-decoration-line:none;text-decoration-style:solid;text-indent:0;text-orientation:mixed;text-transform:none;white-space:normal"/>
  </g>
  <g id="hide-prelight" transform="translate(-13 -577.36)">
    <rect x="44" y="629.36" width="16" height="16" style="fill:#fff;stroke-width:.57143"/>
    <path d="m52 630.12a7.2439 7.2413 0 0 0-7.2439 7.2413 7.2439 7.2413 0 0 0 7.2439 7.2413 7.2439 7.2413 0 0 0 7.2439-7.2413 7.2439 7.2413 0 0 0-7.2439-7.2413z" style="fill:none;opacity:.7;stroke-width:.51733;stroke:#5c616c"/>
    <path d="m48 639.36v2h8v-2" style="color-rendering:auto;color:#000000;dominant-baseline:auto;fill:#5c616c;font-feature-settings:normal;font-variant-alternates:normal;font-variant-caps:normal;font-variant-ligatures:normal;font-variant-numeric:normal;font-variant-position:normal;image-rendering:auto;isolation:auto;mix-blend-mode:normal;paint-order:fill markers stroke;shape-padding:0;shape-rendering:auto;solid-color:#000000;text-decoration-color:#000000;text-decoration-line:none;text-decoration-style:solid;text-indent:0;text-orientation:mixed;text-transform:none;white-space:normal"/>
  </g>
  <g id="hide-pressed" transform="translate(-25 -577.36)">
    <rect x="77" y="629.36" width="16" height="16" style="fill:#fff;stroke-width:.57143"/>
    <path d="m85 630.12a7.2439 7.2413 0 0 0-7.2439 7.2413 7.2439 7.2413 0 0 0 7.2439 7.2413 7.2439 7.2413 0 0 0 7.2439-7.2413 7.2439 7.2413 0 0 0-7.2439-7.2413z" style="opacity:.08;stroke-width:.51733;stroke:#000"/>
    <path d="m81 639.36v2h8v-2" style="color-rendering:auto;color:#000000;dominant-baseline:auto;fill:#5c616c;font-feature-settings:normal;font-variant-alternates:normal;font-variant-caps:normal;font-variant-ligatures:normal;font-variant-numeric:normal;font-variant-position:normal;image-rendering:auto;isolation:auto;mix-blend-mode:normal;paint-order:fill markers stroke;shape-padding:0;shape-rendering:auto;solid-color:#000000;text-decoration-color:#000000;text-decoration-line:none;text-decoration-style:solid;text-indent:0;text-orientation:mixed;text-transform:none;white-space:normal"/>
  </g>
  <g id="hide-inactive" transform="translate(-37 -577.36)">
    <rect x="110" y="629.36" width="16" height="16" style="fill:#fff;stroke-width:.57143"/>
    <path d="m114 639.36v2h8v-2" style="color-rendering:auto;color:#000000;dominant-baseline:auto;fill:#5c616c;font-feature-settings:normal;font-variant-alternates:normal;font-variant-caps:normal;font-variant-ligatures:normal;font-variant-numeric:normal;font-variant-position:normal;image-rendering:auto;isolation:auto;mix-blend-mode:normal;opacity:.5;paint-order:fill markers stroke;shape-padding:0;shape-rendering:auto;solid-color:#000000;text-decoration-color:#000000;text-decoration-line:none;text-decoration-style:solid;text-indent:0;text-orientation:mixed;text-transform:none;white-space:normal"/>
  </g>
  <rect id="menu-active" x="10" y="115.35" width="26" height="16" style="fill:#fff"/>
  <use id="menu-pressed" transform="translate(31 -2.0352e-5)" width="100%" height="100%" style="fill:#ffffff" xlink:href="#menu-active"/>
  <use id="menu-inactive" transform="translate(62 -2.0352e-5)" width="100%" height="100%" style="fill:#ffffff" xlink:href="#menu-active"/>
  <g id="title-1-active">
    <g id="" transform="matrix(.17857 0 0 1 9.1072 -415.01)">
      <rect x="5" y="557.36" width="28" height="28" style="fill:#fff"/>
    </g>
    <rect x="10" y="142.35" width="5" height="1" style="opacity:.4;paint-order:stroke fill markers"/>
  </g>
  <use id="title-2-active" transform="translate(7)" width="100%" height="100%" xlink:href="#title-1-active"/>
  <use id="title-3-active" transform="translate(14)" width="100%" height="100%" xlink:href="#title-1-active"/>
  <use id="title-4-active" transform="translate(21)" width="100%" height="100%" xlink:href="#title-1-active"/>
  <use id="title-5-active" transform="translate(28)" width="100%" height="100%" xlink:href="#title-1-active"/>
  <use id="title-1-inactive" transform="translate(35)" width="100%" height="100%" xlink:href="#title-1-active"/>
  <use id="title-2-inactive" transform="translate(42)" width="100%" height="100%" xlink:href="#title-1-active"/>
  <use id="title-3-inactive" transform="translate(49)" width="100%" height="100%" xlink:href="#title-1-active"/>
  <use id="title-4-inactive" transform="translate(56)" width="100%" height="100%" xlink:href="#title-1-active"/>
  <use id="title-5-inactive" transform="translate(63)" width="100%" height="100%" xlink:href="#title-1-active"/>
  <g id="stick-active" transform="translate(-.99995 -523.36)">
    <rect x="11" y="596.36" width="16" height="16" style="fill:#fff;stroke-width:.57143"/>
    <circle cx="19" cy="604.36" r="4" style="fill:#5c616c;paint-order:fill markers stroke"/>
  </g>
  <g id="stick-prelight" transform="translate(-13 -523.36)">
    <rect x="44" y="596.36" width="16" height="16" style="fill:#fff;stroke-width:.57143"/>
    <path d="m52 597.12a7.2439 7.2413 0 0 0-7.2439 7.2413 7.2439 7.2413 0 0 0 7.2439 7.2413 7.2439 7.2413 0 0 0 7.2439-7.2413 7.2439 7.2413 0 0 0-7.2439-7.2413z" style="fill:none;opacity:.7;stroke-width:.51733;stroke:#5c616c"/>
    <circle cx="52" cy="604.36" r="4" style="fill:#5c616c;paint-order:fill markers stroke"/>
  </g>
  <g id="stick-pressed" transform="translate(-25 -523.36)">
    <rect x="77" y="596.36" width="16" height="16" style="fill:#fff;stroke-width:.57143"/>
    <path d="m85 597.12a7.2439 7.2413 0 0 0-7.2439 7.2413 7.2439 7.2413 0 0 0 7.2439 7.2413 7.2439 7.2413 0 0 0 7.2439-7.2413 7.2439 7.2413 0 0 0-7.2439-7.2413z" style="opacity:.08;stroke-width:.51733;stroke:#000"/>
    <circle cx="85" cy="604.36" r="4" style="fill:#5c616c;paint-order:fill markers stroke"/>
  </g>
  <g id="stick-inactive" transform="translate(-37 -523.36)">
    <rect x="110" y="596.36" width="16" height="16" style="fill:#fff;stroke-width:.57143"/>
    <circle cx="118" cy="604.36" r="4" style="fill:#5c616c;opacity:.5;paint-order:fill markers stroke"/>
  </g>
  <g id="shade-active" transform="translate(-.99995 -535.36)">
    <rect x="11" y="629.36" width="16" height="16" style="fill:#fff;stroke-width:.57143"/>
    <path d="m23.515 639.36-3.6381-3.6381c-0.48258-0.48259-1.2722-0.48256-1.7547 0l-3.6381 3.6381h9.0308" style="fill-rule:evenodd;fill:#5c616c;stroke-width:1.5154"/>
  </g>
  <g id="shade-prelight" transform="translate(-13 -535.36)">
    <rect x="44" y="629.36" width="16" height="16" style="fill:#fff;stroke-width:.57143"/>
    <path d="m52 630.12a7.2439 7.2413 0 0 0-7.2439 7.2413 7.2439 7.2413 0 0 0 7.2439 7.2413 7.2439 7.2413 0 0 0 7.2439-7.2413 7.2439 7.2413 0 0 0-7.2439-7.2413z" style="fill:none;opacity:.7;stroke-width:.51733;stroke:#5c616c"/>
    <path d="m56.515 639.36-3.6381-3.6381c-0.48258-0.48259-1.2722-0.48256-1.7547 0l-3.6381 3.6381h9.0308" style="fill-rule:evenodd;fill:#5c616c;stroke-width:1.5154"/>
  </g>
  <g id="shade-pressed" transform="translate(-25 -535.36)">
    <rect x="77" y="629.36" width="16" height="16" style="fill:#fff;stroke-width:.57143"/>
    <path d="m85 630.12a7.2439 7.2413 0 0 0-7.2439 7.2413 7.2439 7.2413 0 0 0 7.2439 7.2413 7.2439 7.2413 0 0 0 7.2439-7.2413 7.2439 7.2413 0 0 0-7.2439-7.2413z" style="opacity:.08;stroke-width:.51733;stroke:#000"/>
    <path d="m89.515 639.36-3.6381-3.6381c-0.48258-0.48259-1.2722-0.48256-1.7547 0l-3.6381 3.6381h9.0308" style="fill-rule:evenodd;fill:#5c616c;stroke-width:1.5154"/>
  </g>
  <g id="shade-inactive" transform="translate(-37 -535.36)">
    <rect x="110" y="629.36" width="16" height="16" style="fill:#fff;stroke-width:.57143"/>
    <path d="m122.52 639.36-3.6381-3.6381c-0.48258-0.48259-1.2722-0.48256-1.7547 0l-3.6381 3.6381h9.0308" style="fill-rule:evenodd;fill:#5c616c;opacity:.5;stroke-width:1.5154"/>
  </g>
  <g id="top-left-active" clip-path="url(#a)">
    <rect x="9.5" y="178.85" width="12" height="35" rx="4" ry="4" style="fill:#fff;paint-order:normal"/>
    <rect x="10" y="179.35" width="11" height="34" rx="3.5" ry="3.5" style="fill:none;opacity:.4;paint-order:normal;stroke-linecap:square;stroke:#000"/>
  </g>
  <rect x="9.5" y="178.85" width="7" height="28" style="fill:none;paint-order:normal"/>
  <use id="top-left-inactive" transform="translate(8)" width="100%" height="100%" style="fill:#ffffff" xlink:href="#top-left-active"/>
  <use id="top-right-active" transform="matrix(-1,0,0,1,41,0)" width="100%" height="100%" style="fill:#ffffff" xlink:href="#top-left-active"/>
  <use id="top-right-inactive" transform="matrix(-1,0,0,1,49,0)" width="100%" height="100%" style="fill:#ffffff" xlink:href="#top-left-active"/>
  <g id="left-active" transform="translate(25.281 -32.49)">
    <rect x="56.719" y="186.84" width="5" height="16" style="fill:#fff;paint-order:normal"/>
    <rect transform="scale(-1,1)" x="-57.719" y="186.84" width="1" height="16" style="opacity:.4"/>
  </g>
  <use id="left-inactive" transform="translate(5.9998)" width="100%" height="100%" xlink:href="#left-active"/>
  <use id="right-active" transform="matrix(-1,0,0,1,181,0)" width="100%" height="100%" xlink:href="#left-active"/>
  <use id="right-inactive" transform="matrix(-1,0,0,1,187,0)" width="100%" height="100%" xlink:href="#left-active"/>
  <use id="bottom-active" transform="rotate(-90 96.001 179.35)" width="100%" height="100%" xlink:href="#left-active"/>
  <use id="bottom-inactive" transform="rotate(-90 105 188.35)" width="100%" height="100%" xlink:href="#left-active"/>
  <g id="bottom-left-active" transform="translate(-55.408 -19.279)" clip-path="url(#b)">
    <path transform="translate(55.408,19.279)" d="m56.002 175.35c-1.108 0-2 0.892-2 2v14c0 1.108 0.892 2 2 2h14c1.108 0 2-0.892 2-2v-3h-12c-0.554 0-1-0.446-1-1v-12h-3z" style="fill:#fff;paint-order:normal"/>
    <path transform="translate(55.408,19.279)" d="m56.002 175.35c-1.108 0-2 0.892-2 2v14c0 1.108 0.892 2 2 2h14c1.108 0 2-0.892 2-2v-3h-12c-0.554 0-1-0.446-1-1v-12h-3z" style="opacity:.4;paint-order:normal"/>
    <path transform="translate(55.408,19.279)" d="m56.002 176.35c-0.554 0-1 0.446-1 1v14c0 0.554 0.446 1 1 1h14c0.554 0 1-0.446 1-1v-3h-11c-0.554 0-1-0.446-1-1v-11h-3z" style="fill:#fff;paint-order:normal"/>
  </g>
  <use id="bottom-right-active" transform="rotate(-90 78.999 168.35)" width="100%" height="100%" xlink:href="#bottom-left-active"/>
  <use id="bottom-right-inactive" transform="rotate(-90 87.999 177.35)" width="100%" height="100%" xlink:href="#bottom-left-active"/>
  <use id="bottom-left-inactive" transform="translate(3e-7 18)" width="100%" height="100%" xlink:href="#bottom-left-active"/>
</svg>
