<svg version="1.1" viewBox="0 0 108 217.35" xmlns="http://www.w3.org/2000/svg" xmlns:xlink="http://www.w3.org/1999/xlink">
  <defs>
    <linearGradient id="linearGradient1387">
      <stop style="stop-color:#383d4b" offset="0"/>
      <stop style="stop-color:#383d4b" offset=".6"/>
      <stop style="stop-color:#13151a" offset="1"/>
    </linearGradient>
    <clipPath id="b">
      <rect x="109.41" y="196.63" width="16" height="16" style="opacity:.3;paint-order:normal"/>
    </clipPath>
    <clipPath id="a">
      <rect x="9.5" y="178.85" width="5" height="28" style="fill:#fff;opacity:.539;paint-order:normal"/>
    </clipPath>
    <radialGradient id="radialGradient1090" cx="19" cy="571.7" r="7.5026" gradientTransform="matrix(1.2644,-4.7776e-7,4.7742e-7,1.2644,-5.0243,-150.62)" gradientUnits="userSpaceOnUse" xlink:href="#linearGradient1387"/>
    <filter id="filter4189" x="-.048" y="-.048" width="1.096" height="1.096" style="color-interpolation-filters:sRGB">
      <feGaussianBlur stdDeviation="0.32"/>
    </filter>
    <radialGradient id="radialGradient1090-4" cx="19" cy="571.7" r="7.5026" gradientTransform="matrix(1.2644,-4.7776e-7,4.7742e-7,1.2644,35.976,-703.98)" gradientUnits="userSpaceOnUse" xlink:href="#linearGradient1387"/>
    <filter id="filter4189-0" x="-.048" y="-.048" width="1.096" height="1.096" style="color-interpolation-filters:sRGB">
      <feGaussianBlur stdDeviation="0.32"/>
    </filter>
    <radialGradient id="radialGradient1090-4-2" cx="19" cy="571.7" r="7.5026" gradientTransform="matrix(1.2644,-4.7776e-7,4.7742e-7,1.2644,60.976,-117.62)" gradientUnits="userSpaceOnUse" xlink:href="#linearGradient1387"/>
    <filter id="filter4189-1" x="-.048" y="-.048" width="1.096" height="1.096" style="color-interpolation-filters:sRGB">
      <feGaussianBlur stdDeviation="0.32"/>
    </filter>
    <radialGradient id="radialGradient1090-4-5" cx="19" cy="571.7" r="7.5026" gradientTransform="matrix(1.2644,-4.7776e-7,4.7742e-7,1.2644,60.976,-84.618)" gradientUnits="userSpaceOnUse" xlink:href="#linearGradient1387"/>
    <filter id="filter4189-1-5" x="-.048" y="-.048" width="1.096" height="1.096" style="color-interpolation-filters:sRGB">
      <feGaussianBlur stdDeviation="0.32"/>
    </filter>
    <filter id="filter4189-1-0" x="-.048" y="-.048" width="1.096" height="1.096" style="color-interpolation-filters:sRGB">
      <feGaussianBlur stdDeviation="0.32"/>
    </filter>
    <radialGradient id="radialGradient1090-4-26" cx="19" cy="571.7" r="7.5026" gradientTransform="matrix(1.2644,-4.7776e-7,4.7742e-7,1.2644,60.976,-84.616)" gradientUnits="userSpaceOnUse" xlink:href="#linearGradient1387"/>
    <filter id="filter1377" x="-.048" y="-.048" width="1.096" height="1.096" style="color-interpolation-filters:sRGB">
      <feGaussianBlur stdDeviation="0.32"/>
    </filter>
    <radialGradient id="radialGradient1090-7" cx="19" cy="571.7" r="7.5026" gradientTransform="matrix(1.2644 -4.7776e-7 4.7742e-7 1.2644 -5.0243 -117.62)" gradientUnits="userSpaceOnUse" xlink:href="#linearGradient1387"/>
    <filter id="filter1377-6" x="-.048" y="-.048" width="1.096" height="1.096" style="color-interpolation-filters:sRGB">
      <feGaussianBlur stdDeviation="0.32"/>
    </filter>
    <radialGradient id="radialGradient1090-70" cx="19" cy="571.7" r="7.5026" gradientTransform="matrix(1.2644 -4.7776e-7 4.7742e-7 1.2644 -5.0243 -84.62)" gradientUnits="userSpaceOnUse" xlink:href="#linearGradient1387"/>
    <filter id="filter1377-0" x="-.048" y="-.048" width="1.096" height="1.096" style="color-interpolation-filters:sRGB">
      <feGaussianBlur stdDeviation="0.32"/>
    </filter>
  </defs>
  <rect id="menu-active" x="10" y="115.35" width="26" height="16" style="fill:#23252e"/>
  <use id="menu-pressed" transform="translate(31 -2.0352e-5)" width="100%" height="100%" style="fill:#ffffff" xlink:href="#menu-active"/>
  <use id="menu-inactive" transform="translate(62 -2.0352e-5)" width="100%" height="100%" style="fill:#ffffff" xlink:href="#menu-active"/>
  <g id="title-1-active">
    <g id="" transform="matrix(.17857 0 0 1 9.1072 -415.01)">
      <rect x="5" y="557.36" width="28" height="28" style="fill:#23252e"/>
    </g>
    <rect x="10" y="142.35" width="5" height="1" style="opacity:.5;paint-order:stroke fill markers"/>
  </g>
  <use id="title-2-active" transform="translate(7)" width="100%" height="100%" xlink:href="#title-1-active"/>
  <use id="title-3-active" transform="translate(14)" width="100%" height="100%" xlink:href="#title-1-active"/>
  <use id="title-4-active" transform="translate(21)" width="100%" height="100%" xlink:href="#title-1-active"/>
  <use id="title-5-active" transform="translate(28)" width="100%" height="100%" xlink:href="#title-1-active"/>
  <use id="title-1-inactive" transform="translate(35)" width="100%" height="100%" xlink:href="#title-1-active"/>
  <use id="title-2-inactive" transform="translate(42)" width="100%" height="100%" xlink:href="#title-1-active"/>
  <use id="title-3-inactive" transform="translate(49)" width="100%" height="100%" xlink:href="#title-1-active"/>
  <use id="title-4-inactive" transform="translate(56)" width="100%" height="100%" xlink:href="#title-1-active"/>
  <use id="title-5-inactive" transform="translate(63)" width="100%" height="100%" xlink:href="#title-1-active"/>
  <g id="top-left-active" clip-path="url(#a)">
    <rect x="9.5" y="178.85" width="12" height="35" rx="4" ry="4" style="fill:#23252e;paint-order:normal"/>
    <rect x="10" y="179.35" width="11" height="34" rx="3.5" ry="3.5" style="fill:none;opacity:.5;paint-order:normal;stroke-linecap:square;stroke:#000"/>
  </g>
  <rect x="9.5" y="178.85" width="7" height="28" style="fill:none;paint-order:normal"/>
  <use id="top-left-inactive" transform="translate(8)" width="100%" height="100%" style="fill:#ffffff" xlink:href="#top-left-active"/>
  <use id="top-right-active" transform="matrix(-1,0,0,1,41,0)" width="100%" height="100%" style="fill:#ffffff" xlink:href="#top-left-active"/>
  <use id="top-right-inactive" transform="matrix(-1,0,0,1,49,0)" width="100%" height="100%" style="fill:#ffffff" xlink:href="#top-left-active"/>
  <g id="left-active" transform="translate(25.281 -32.49)">
    <rect x="56.719" y="186.84" width="5" height="16" style="fill:#23252e;paint-order:normal"/>
    <rect transform="scale(-1,1)" x="-57.719" y="186.84" width="1" height="16" style="opacity:.5"/>
  </g>
  <use id="left-inactive" transform="translate(5.9998)" width="100%" height="100%" xlink:href="#left-active"/>
  <use id="right-active" transform="matrix(-1,0,0,1,181,0)" width="100%" height="100%" xlink:href="#left-active"/>
  <use id="right-inactive" transform="matrix(-1,0,0,1,187,0)" width="100%" height="100%" xlink:href="#left-active"/>
  <use id="bottom-active" transform="rotate(-90 96.001 179.35)" width="100%" height="100%" xlink:href="#left-active"/>
  <use id="bottom-inactive" transform="rotate(-90 105 188.35)" width="100%" height="100%" xlink:href="#left-active"/>
  <g id="bottom-left-active" transform="translate(-55.408 -19.279)" clip-path="url(#b)">
    <path transform="translate(55.408,19.279)" d="m56.002 175.35c-1.108 0-2 0.892-2 2v14c0 1.108 0.892 2 2 2h14c1.108 0 2-0.892 2-2v-3h-12c-0.554 0-1-0.446-1-1v-12h-3z" style="fill:#23252e;paint-order:normal"/>
    <path transform="translate(55.408,19.279)" d="m56.002 175.35c-1.108 0-2 0.892-2 2v14c0 1.108 0.892 2 2 2h14c1.108 0 2-0.892 2-2v-3h-12c-0.554 0-1-0.446-1-1v-12h-3z" style="opacity:.5;paint-order:normal"/>
    <path transform="translate(55.408,19.279)" d="m56.002 176.35c-0.554 0-1 0.446-1 1v14c0 0.554 0.446 1 1 1h14c0.554 0 1-0.446 1-1v-3h-11c-0.554 0-1-0.446-1-1v-11h-3z" style="fill:#23252e;paint-order:normal"/>
  </g>
  <use id="bottom-right-active" transform="rotate(-90 78.999 168.35)" width="100%" height="100%" xlink:href="#bottom-left-active"/>
  <use id="bottom-right-inactive" transform="rotate(-90 87.999 177.35)" width="100%" height="100%" xlink:href="#bottom-left-active"/>
  <use id="bottom-left-inactive" transform="translate(3e-7 18)" width="100%" height="100%" xlink:href="#bottom-left-active"/>
  <g id="close-active" transform="translate(1 -551.36)">
    <rect x="9" y="561.36" width="20" height="20" style="fill:#23252e;stroke-width:.71429"/>
    <path transform="translate(-1 551.36)" d="m20 13c-4.4122 0-8 3.5878-8 8 0 4.4123 3.5878 8 8 8 4.4122 0 8-3.5878 8-8 0-4.4122-3.5878-8-8-8z" style="color-rendering:auto;color:#000000;dominant-baseline:auto;fill:#fff;filter:url(#filter1377);font-feature-settings:normal;font-variant-alternates:normal;font-variant-caps:normal;font-variant-east-asian:normal;font-variant-ligatures:normal;font-variant-numeric:normal;font-variant-position:normal;font-variation-settings:normal;image-rendering:auto;inline-size:0;isolation:auto;mix-blend-mode:normal;opacity:.1;shape-margin:0;shape-padding:0;shape-rendering:auto;solid-color:#000000;stop-color:#000000;text-decoration-color:#000000;text-decoration-line:none;text-decoration-style:solid;text-indent:0;text-orientation:mixed;text-transform:none;white-space:normal"/>
    <path d="m19 563.86c-4.142 0-7.4998 3.3578-7.4998 7.4998 0 4.1421 3.3578 7.4998 7.4998 7.4998s7.4998-3.3578 7.4998-7.4998-3.3578-7.4998-7.4998-7.4998z" style="fill:url(#radialGradient1090);stroke:#020202"/>
  </g>
  <g id="close-prelight" transform="matrix(1.0573,0,0,1.0573,-13.977,-584.07)">
    <rect x="42.51" y="561.9" width="18.917" height="18.917" style="fill:#23252e;stroke-width:.67561"/>
    <path transform="matrix(1.0248,0,0,1.0248,-1.289,-14.19)" d="m52 563.36c-4.4149 0-8 3.5858-8 8.001s3.5851 7.999 8 7.999 8-3.5839 8-7.999-3.5851-8.001-8-8.001z" style="color-rendering:auto;color:#000000;dominant-baseline:auto;fill:#101116;filter:url(#filter4189);font-feature-settings:normal;font-variant-alternates:normal;font-variant-caps:normal;font-variant-east-asian:normal;font-variant-ligatures:normal;font-variant-numeric:normal;font-variant-position:normal;font-variation-settings:normal;image-rendering:auto;inline-size:0;isolation:auto;mix-blend-mode:normal;shape-margin:0;shape-padding:0;shape-rendering:auto;solid-color:#000000;stop-color:#000000;text-decoration-color:#000000;text-decoration-line:none;text-decoration-style:solid;text-indent:0;text-orientation:mixed;text-transform:none;white-space:normal"/>
    <path d="m51.969 562.95c-4.1762 0-7.5668 3.3908-7.5668 7.5668s3.3906 7.5668 7.5668 7.5668 7.5668-3.3908 7.5668-7.5668-3.3906-7.5668-7.5668-7.5668z" style="color-rendering:auto;color:#000000;dominant-baseline:auto;fill:#383d4b;font-feature-settings:normal;font-variant-alternates:normal;font-variant-caps:normal;font-variant-east-asian:normal;font-variant-ligatures:normal;font-variant-numeric:normal;font-variant-position:normal;font-variation-settings:normal;image-rendering:auto;inline-size:0;isolation:auto;mix-blend-mode:normal;shape-margin:0;shape-padding:0;shape-rendering:auto;solid-color:#000000;stop-color:#000000;text-decoration-color:#000000;text-decoration-line:none;text-decoration-style:solid;text-indent:0;text-orientation:mixed;text-transform:none;white-space:normal"/>
    <path d="m48.188 566.73h0.9455c0.01008-1.3e-4 0.01966-4.5e-4 0.02951 0 0.24106 0.0101 0.48208 0.12156 0.65003 0.29555l2.1568 2.1577 2.1865-2.1577c0.25114-0.21801 0.42232-0.28894 0.65002-0.29555h0.9455v0.94581c0 0.27095-0.0324 0.52081-0.23637 0.70937l-2.1568 2.1577 2.1273 2.1281c0.17793 0.17798 0.26591 0.42888 0.26591 0.67982v0.94583h-0.9455c-0.25083-1e-5 -0.50165-0.088-0.67957-0.26603l-2.1568-2.1576-2.1568 2.1576c-0.17791 0.17801-0.42875 0.26603-0.67959 0.26603h-0.9455v-0.94583c0-0.25092 0.08799-0.50184 0.26593-0.67982l2.1568-2.1281-2.1568-2.1577c-0.19924-0.18409-0.28663-0.44383-0.26593-0.70937v-0.94581z" style="color:#bebebe;enable-background:new;fill:#fff;stroke-width:1.2609;text-decoration-line:none;text-indent:0;text-transform:none"/>
  </g>
  <g id="close-pressed" transform="translate(-23,-551.36)">
    <rect x="75" y="561.36" width="20" height="20" style="fill:#23252e;stroke-width:.71429"/>
    <path transform="translate(25,553.36)" d="m60 10.002c-4.4123 0-8 3.5877-8 8s3.5877 8 8 8 8-3.5877 8-8-3.5877-8-8-8z" style="color-rendering:auto;color:#000000;dominant-baseline:auto;fill:url(#radialGradient1090-4);font-feature-settings:normal;font-variant-alternates:normal;font-variant-caps:normal;font-variant-east-asian:normal;font-variant-ligatures:normal;font-variant-numeric:normal;font-variant-position:normal;font-variation-settings:normal;image-rendering:auto;inline-size:0;isolation:auto;mix-blend-mode:normal;shape-margin:0;shape-padding:0;shape-rendering:auto;solid-color:#000000;stop-color:#000000;text-decoration-color:#000000;text-decoration-line:none;text-decoration-style:solid;text-indent:0;text-orientation:mixed;text-transform:none;white-space:normal"/>
    <path d="m81.003 567.36h0.99962c0.01066-1.2e-4 0.02079-4.7e-4 0.03119 0 0.25486 0.0107 0.50967 0.12853 0.68724 0.31248l2.2803 2.2812 2.3117-2.2812c0.26552-0.23049 0.4465-0.30548 0.68723-0.31248h0.99962v0.99997c0 0.28646-0.03425 0.55063-0.2499 0.74998l-2.2803 2.2812 2.2491 2.2499c0.18812 0.18817 0.28113 0.45344 0.28113 0.71874v0.99998h-0.99962c-0.26519-1e-5 -0.53037-0.0931-0.71847-0.28125l-2.2803-2.2811-2.2803 2.2811c-0.1881 0.18819-0.45329 0.28125-0.71849 0.28125h-0.99962v-0.99998c0-0.26528 0.09303-0.53057 0.28115-0.71874l2.2803-2.2499-2.2803-2.2812c-0.21065-0.19463-0.30304-0.46924-0.28115-0.74998v-0.99997z" style="color:#bebebe;enable-background:new;fill:#fff;stroke-width:1.3331;text-decoration-line:none;text-indent:0;text-transform:none"/>
  </g>
  <g id="close-inactive" transform="translate(-35,-551.36)">
    <rect x="108" y="561.36" width="20" height="20" style="fill:#23252e;stroke-width:.71429"/>
    <path d="m118 563.86c-4.142 0-7.4998 3.3578-7.4998 7.4998 0 4.1421 3.3578 7.4998 7.4998 7.4998s7.4998-3.3578 7.4998-7.4998-3.3578-7.4998-7.4998-7.4998z" style="fill:none;stroke:#16171d"/>
  </g>
  <g id="maximize-active" transform="translate(1 -563.36)">
    <rect x="9" y="594.36" width="20" height="20" style="fill:#23252e;stroke-width:.71429"/>
    <path d="m19 597.36c-4.4122 0-8 3.5878-8 8 0 4.4123 3.5878 8 8 8 4.4122 0 8-3.5878 8-8 0-4.4122-3.5878-8-8-8z" style="color-rendering:auto;color:#000000;dominant-baseline:auto;fill:#fff;filter:url(#filter1377-6);font-feature-settings:normal;font-variant-alternates:normal;font-variant-caps:normal;font-variant-east-asian:normal;font-variant-ligatures:normal;font-variant-numeric:normal;font-variant-position:normal;font-variation-settings:normal;image-rendering:auto;inline-size:0;isolation:auto;mix-blend-mode:normal;opacity:.1;shape-margin:0;shape-padding:0;shape-rendering:auto;solid-color:#000000;stop-color:#000000;text-decoration-color:#000000;text-decoration-line:none;text-decoration-style:solid;text-indent:0;text-orientation:mixed;text-transform:none;white-space:normal"/>
    <path d="m19 596.86c-4.142 0-7.4998 3.3578-7.4998 7.4998 0 4.1421 3.3578 7.4998 7.4998 7.4998s7.4998-3.3578 7.4998-7.4998-3.3578-7.4998-7.4998-7.4998z" style="fill:url(#radialGradient1090-7);stroke:#020202"/>
  </g>
  <g id="maximize-prelight" transform="translate(-11,-563.36)">
    <rect x="41.967" y="594.36" width="20" height="20" style="fill:#23252e;stroke-width:.71429"/>
    <path transform="matrix(1.0835,0,0,1.0835,-4.3399,-14.715)" d="m52 563.36c-4.4149 0-8 3.5858-8 8.001s3.5851 7.999 8 7.999 8-3.5839 8-7.999-3.5851-8.001-8-8.001z" style="color-rendering:auto;color:#000000;dominant-baseline:auto;fill:#101116;filter:url(#filter4189-0);font-feature-settings:normal;font-variant-alternates:normal;font-variant-caps:normal;font-variant-east-asian:normal;font-variant-ligatures:normal;font-variant-numeric:normal;font-variant-position:normal;font-variation-settings:normal;image-rendering:auto;inline-size:0;isolation:auto;mix-blend-mode:normal;shape-margin:0;shape-padding:0;shape-rendering:auto;solid-color:#000000;stop-color:#000000;text-decoration-color:#000000;text-decoration-line:none;text-decoration-style:solid;text-indent:0;text-orientation:mixed;text-transform:none;white-space:normal"/>
    <path d="m51.967 595.47c-4.4153 0-8 3.5849-8 8s3.5847 8 8 8 8-3.5849 8-8-3.5847-8-8-8z" style="color-rendering:auto;color:#000000;dominant-baseline:auto;fill:#383d4b;font-feature-settings:normal;font-variant-alternates:normal;font-variant-caps:normal;font-variant-east-asian:normal;font-variant-ligatures:normal;font-variant-numeric:normal;font-variant-position:normal;font-variation-settings:normal;image-rendering:auto;inline-size:0;isolation:auto;mix-blend-mode:normal;shape-margin:0;shape-padding:0;shape-rendering:auto;solid-color:#000000;stop-color:#000000;text-decoration-color:#000000;text-decoration-line:none;text-decoration-style:solid;text-indent:0;text-orientation:mixed;text-transform:none;white-space:normal"/>
    <path d="m47.967 599.47v8h8v-8zm1.9942 2h4.0117v4h-4.0117z" style="color-rendering:auto;color:#000000;dominant-baseline:auto;fill:#fff;font-feature-settings:normal;font-variant-alternates:normal;font-variant-caps:normal;font-variant-ligatures:normal;font-variant-numeric:normal;font-variant-position:normal;image-rendering:auto;isolation:auto;mix-blend-mode:normal;paint-order:fill markers stroke;shape-padding:0;shape-rendering:auto;solid-color:#000000;text-decoration-color:#000000;text-decoration-line:none;text-decoration-style:solid;text-indent:0;text-orientation:mixed;text-transform:none;white-space:normal"/>
  </g>
  <g id="maximize-pressed" transform="translate(-23,-563.36)">
    <rect x="75" y="594.36" width="20" height="20" style="fill:#23252e;stroke-width:.71429"/>
    <path d="m85 596.36c-4.4123 0-8 3.5877-8 8s3.5877 8 8 8 8-3.5877 8-8-3.5877-8-8-8z" style="color-rendering:auto;color:#000000;dominant-baseline:auto;fill:url(#radialGradient1090-4-2);font-feature-settings:normal;font-variant-alternates:normal;font-variant-caps:normal;font-variant-east-asian:normal;font-variant-ligatures:normal;font-variant-numeric:normal;font-variant-position:normal;font-variation-settings:normal;image-rendering:auto;inline-size:0;isolation:auto;mix-blend-mode:normal;shape-margin:0;shape-padding:0;shape-rendering:auto;solid-color:#000000;stop-color:#000000;text-decoration-color:#000000;text-decoration-line:none;text-decoration-style:solid;text-indent:0;text-orientation:mixed;text-transform:none;white-space:normal"/>
    <path d="m81 600.36v8h8v-8zm1.9942 2h4.0117v4h-4.0117z" style="color-rendering:auto;color:#000000;dominant-baseline:auto;fill:#fff;font-feature-settings:normal;font-variant-alternates:normal;font-variant-caps:normal;font-variant-ligatures:normal;font-variant-numeric:normal;font-variant-position:normal;image-rendering:auto;isolation:auto;mix-blend-mode:normal;paint-order:fill markers stroke;shape-padding:0;shape-rendering:auto;solid-color:#000000;text-decoration-color:#000000;text-decoration-line:none;text-decoration-style:solid;text-indent:0;text-orientation:mixed;text-transform:none;white-space:normal"/>
  </g>
  <g id="maximize-inactive" transform="translate(-35,-563.36)">
    <rect x="108" y="594.36" width="20" height="20" style="fill:#23252e;stroke-width:.71429"/>
    <path d="m118 596.86c-4.142 0-7.4998 3.3578-7.4998 7.4998 0 4.1421 3.3578 7.4998 7.4998 7.4998s7.4998-3.3578 7.4998-7.4998-3.3578-7.4998-7.4998-7.4998z" style="fill:none;stroke:#16171d"/>
  </g>
  <g id="hide-active" transform="translate(1 -575.36)">
    <rect x="9" y="627.36" width="20" height="20" style="fill:#23252e;stroke-width:.71429"/>
    <path d="m19 630.36c-4.4122 0-8 3.5878-8 8 0 4.4123 3.5878 8 8 8 4.4122 0 8-3.5878 8-8 0-4.4122-3.5878-8-8-8z" style="color-rendering:auto;color:#000000;dominant-baseline:auto;fill:#fff;filter:url(#filter1377-0);font-feature-settings:normal;font-variant-alternates:normal;font-variant-caps:normal;font-variant-east-asian:normal;font-variant-ligatures:normal;font-variant-numeric:normal;font-variant-position:normal;font-variation-settings:normal;image-rendering:auto;inline-size:0;isolation:auto;mix-blend-mode:normal;opacity:.1;shape-margin:0;shape-padding:0;shape-rendering:auto;solid-color:#000000;stop-color:#000000;text-decoration-color:#000000;text-decoration-line:none;text-decoration-style:solid;text-indent:0;text-orientation:mixed;text-transform:none;white-space:normal"/>
    <path d="m19 629.86c-4.142 0-7.4998 3.3578-7.4998 7.4998 0 4.1421 3.3578 7.4998 7.4998 7.4998s7.4998-3.3578 7.4998-7.4998-3.3578-7.4998-7.4998-7.4998z" style="fill:url(#radialGradient1090-70);stroke:#020202"/>
  </g>
  <g id="hide-prelight" transform="translate(-11,-575.36)">
    <rect x="41.967" y="627.36" width="20" height="20" style="fill:#23252e;stroke-width:.71429"/>
    <path transform="matrix(1.0835,0,0,1.0835,-4.3399,18.285)" d="m52 563.36c-4.4149 0-8 3.5858-8 8.001s3.5851 7.999 8 7.999 8-3.5839 8-7.999-3.5851-8.001-8-8.001z" style="color-rendering:auto;color:#000000;dominant-baseline:auto;fill:#101116;filter:url(#filter4189-1);font-feature-settings:normal;font-variant-alternates:normal;font-variant-caps:normal;font-variant-east-asian:normal;font-variant-ligatures:normal;font-variant-numeric:normal;font-variant-position:normal;font-variation-settings:normal;image-rendering:auto;inline-size:0;isolation:auto;mix-blend-mode:normal;shape-margin:0;shape-padding:0;shape-rendering:auto;solid-color:#000000;stop-color:#000000;text-decoration-color:#000000;text-decoration-line:none;text-decoration-style:solid;text-indent:0;text-orientation:mixed;text-transform:none;white-space:normal"/>
    <path d="m51.967 628.47c-4.4153 0-8 3.5849-8 8s3.5847 8 8 8 8-3.5849 8-8-3.5847-8-8-8z" style="color-rendering:auto;color:#000000;dominant-baseline:auto;fill:#383d4b;font-feature-settings:normal;font-variant-alternates:normal;font-variant-caps:normal;font-variant-east-asian:normal;font-variant-ligatures:normal;font-variant-numeric:normal;font-variant-position:normal;font-variation-settings:normal;image-rendering:auto;inline-size:0;isolation:auto;mix-blend-mode:normal;shape-margin:0;shape-padding:0;shape-rendering:auto;solid-color:#000000;stop-color:#000000;text-decoration-color:#000000;text-decoration-line:none;text-decoration-style:solid;text-indent:0;text-orientation:mixed;text-transform:none;white-space:normal"/>
    <path d="m48 638.47v2h8v-2" style="color-rendering:auto;color:#000000;dominant-baseline:auto;fill:#fff;font-feature-settings:normal;font-variant-alternates:normal;font-variant-caps:normal;font-variant-ligatures:normal;font-variant-numeric:normal;font-variant-position:normal;image-rendering:auto;isolation:auto;mix-blend-mode:normal;paint-order:fill markers stroke;shape-padding:0;shape-rendering:auto;solid-color:#000000;text-decoration-color:#000000;text-decoration-line:none;text-decoration-style:solid;text-indent:0;text-orientation:mixed;text-transform:none;white-space:normal"/>
  </g>
  <g id="hide-pressed" transform="translate(-23,-575.36)">
    <rect x="75" y="627.36" width="20" height="20" style="fill:#23252e;stroke-width:.71429"/>
    <path d="m85 629.36c-4.4123 0-8 3.5877-8 8s3.5877 8 8 8 8-3.5877 8-8-3.5877-8-8-8z" style="color-rendering:auto;color:#000000;dominant-baseline:auto;fill:url(#radialGradient1090-4-5);font-feature-settings:normal;font-variant-alternates:normal;font-variant-caps:normal;font-variant-east-asian:normal;font-variant-ligatures:normal;font-variant-numeric:normal;font-variant-position:normal;font-variation-settings:normal;image-rendering:auto;inline-size:0;isolation:auto;mix-blend-mode:normal;shape-margin:0;shape-padding:0;shape-rendering:auto;solid-color:#000000;stop-color:#000000;text-decoration-color:#000000;text-decoration-line:none;text-decoration-style:solid;text-indent:0;text-orientation:mixed;text-transform:none;white-space:normal"/>
    <path d="m81 639.36v2h8v-2" style="color-rendering:auto;color:#000000;dominant-baseline:auto;fill:#fff;font-feature-settings:normal;font-variant-alternates:normal;font-variant-caps:normal;font-variant-ligatures:normal;font-variant-numeric:normal;font-variant-position:normal;image-rendering:auto;isolation:auto;mix-blend-mode:normal;paint-order:fill markers stroke;shape-padding:0;shape-rendering:auto;solid-color:#000000;text-decoration-color:#000000;text-decoration-line:none;text-decoration-style:solid;text-indent:0;text-orientation:mixed;text-transform:none;white-space:normal"/>
  </g>
  <g id="hide-inactive" transform="translate(-35,-575.36)">
    <rect x="108" y="627.36" width="20" height="20" style="fill:#23252e;stroke-width:.71429"/>
    <path d="m118 629.86c-4.142 0-7.4998 3.3578-7.4998 7.4998 0 4.1421 3.3578 7.4998 7.4998 7.4998s7.4998-3.3578 7.4998-7.4998-3.3578-7.4998-7.4998-7.4998z" style="fill:none;stroke:#16171d"/>
  </g>
  <g id="stick-active" transform="translate(1 -521.36)">
    <rect x="9" y="594.36" width="20" height="20" style="fill:#23252e;stroke-width:.71429"/>
    <circle cx="19" cy="604.36" r="4" style="fill:#fff;paint-order:fill markers stroke"/>
  </g>
  <g id="stick-prelight" transform="translate(-11,-521.36)">
    <rect x="42" y="594.36" width="20" height="20" style="fill:#23252e;stroke-width:.71429"/>
    <path transform="matrix(1.0835,0,0,1.0835,-4.3069,-14.715)" d="m52 563.36c-4.4149 0-8 3.5858-8 8.001s3.5851 7.999 8 7.999 8-3.5839 8-7.999-3.5851-8.001-8-8.001z" style="color-rendering:auto;color:#000000;dominant-baseline:auto;fill:#101116;filter:url(#filter4189-1-5);font-feature-settings:normal;font-variant-alternates:normal;font-variant-caps:normal;font-variant-east-asian:normal;font-variant-ligatures:normal;font-variant-numeric:normal;font-variant-position:normal;font-variation-settings:normal;image-rendering:auto;inline-size:0;isolation:auto;mix-blend-mode:normal;shape-margin:0;shape-padding:0;shape-rendering:auto;solid-color:#000000;stop-color:#000000;text-decoration-color:#000000;text-decoration-line:none;text-decoration-style:solid;text-indent:0;text-orientation:mixed;text-transform:none;white-space:normal"/>
    <path d="m52 595.47c-4.4153 0-8 3.5849-8 8s3.5847 8 8 8 8-3.5849 8-8-3.5847-8-8-8z" style="color-rendering:auto;color:#000000;dominant-baseline:auto;fill:#383d4b;font-feature-settings:normal;font-variant-alternates:normal;font-variant-caps:normal;font-variant-east-asian:normal;font-variant-ligatures:normal;font-variant-numeric:normal;font-variant-position:normal;font-variation-settings:normal;image-rendering:auto;inline-size:0;isolation:auto;mix-blend-mode:normal;shape-margin:0;shape-padding:0;shape-rendering:auto;solid-color:#000000;stop-color:#000000;text-decoration-color:#000000;text-decoration-line:none;text-decoration-style:solid;text-indent:0;text-orientation:mixed;text-transform:none;white-space:normal"/>
    <circle cx="52" cy="603.47" r="4" style="fill:#fff;paint-order:fill markers stroke"/>
  </g>
  <g id="stick-pressed" transform="translate(-23,-521.36)">
    <rect x="75" y="594.36" width="20" height="20" style="fill:#23252e;stroke-width:.71429"/>
    <path d="m85 596.36c-4.4123 0-8 3.5877-8 8s3.5877 8 8 8 8-3.5877 8-8-3.5877-8-8-8z" style="color-rendering:auto;color:#000000;dominant-baseline:auto;fill:url(#radialGradient1090-4-2);font-feature-settings:normal;font-variant-alternates:normal;font-variant-caps:normal;font-variant-east-asian:normal;font-variant-ligatures:normal;font-variant-numeric:normal;font-variant-position:normal;font-variation-settings:normal;image-rendering:auto;inline-size:0;isolation:auto;mix-blend-mode:normal;shape-margin:0;shape-padding:0;shape-rendering:auto;solid-color:#000000;stop-color:#000000;text-decoration-color:#000000;text-decoration-line:none;text-decoration-style:solid;text-indent:0;text-orientation:mixed;text-transform:none;white-space:normal"/>
    <circle cx="85" cy="604.36" r="4" style="fill:#fff;paint-order:fill markers stroke"/>
  </g>
  <g id="stick-inactive" transform="translate(-35,-521.36)">
    <rect x="108" y="594.36" width="20" height="20" style="fill:#23252e;stroke-width:.71429"/>
    <circle cx="118" cy="604.36" r="4" style="fill:#fff;opacity:.5;paint-order:fill markers stroke"/>
  </g>
  <g id="shade-active" transform="translate(1 -533.36)">
    <rect x="8.9995" y="627.36" width="20" height="20" style="fill:#23252e;stroke-width:.71429"/>
    <path d="m23.515 639.36-3.6381-3.6381c-0.48258-0.48259-1.2722-0.48256-1.7547 0l-3.6381 3.6381h9.0308" style="fill-rule:evenodd;fill:#fff;stroke-width:1.5154"/>
  </g>
  <g id="shade-prelight" transform="translate(-11,-533.36)">
    <rect x="42" y="627.36" width="20" height="20" style="fill:#23252e;stroke-width:.71429"/>
    <path transform="matrix(1.0835,0,0,1.0835,-4.3074,18.285)" d="m52 563.36c-4.4149 0-8 3.5858-8 8.001s3.5851 7.999 8 7.999 8-3.5839 8-7.999-3.5851-8.001-8-8.001z" style="color-rendering:auto;color:#000000;dominant-baseline:auto;fill:#101116;filter:url(#filter4189-1-0);font-feature-settings:normal;font-variant-alternates:normal;font-variant-caps:normal;font-variant-east-asian:normal;font-variant-ligatures:normal;font-variant-numeric:normal;font-variant-position:normal;font-variation-settings:normal;image-rendering:auto;inline-size:0;isolation:auto;mix-blend-mode:normal;shape-margin:0;shape-padding:0;shape-rendering:auto;solid-color:#000000;stop-color:#000000;text-decoration-color:#000000;text-decoration-line:none;text-decoration-style:solid;text-indent:0;text-orientation:mixed;text-transform:none;white-space:normal"/>
    <path d="m52 628.47c-4.4153 0-8 3.5849-8 8s3.5847 8 8 8 8-3.5849 8-8-3.5847-8-8-8z" style="color-rendering:auto;color:#000000;dominant-baseline:auto;fill:#383d4b;font-feature-settings:normal;font-variant-alternates:normal;font-variant-caps:normal;font-variant-east-asian:normal;font-variant-ligatures:normal;font-variant-numeric:normal;font-variant-position:normal;font-variation-settings:normal;image-rendering:auto;inline-size:0;isolation:auto;mix-blend-mode:normal;shape-margin:0;shape-padding:0;shape-rendering:auto;solid-color:#000000;stop-color:#000000;text-decoration-color:#000000;text-decoration-line:none;text-decoration-style:solid;text-indent:0;text-orientation:mixed;text-transform:none;white-space:normal"/>
    <path d="m56.515 638.47-3.6381-3.6381c-0.48258-0.48259-1.2722-0.48256-1.7547 0l-3.6381 3.6381h9.0308" style="fill-rule:evenodd;fill:#fff;stroke-width:1.5154"/>
  </g>
  <g id="shade-pressed" transform="translate(-23,-533.36)">
    <rect x="75" y="627.36" width="20" height="20" style="fill:#23252e;stroke-width:.71429"/>
    <path d="m85 629.36c-4.4123 0-8 3.5877-8 8s3.5877 8 8 8 8-3.5877 8-8-3.5877-8-8-8z" style="color-rendering:auto;color:#000000;dominant-baseline:auto;fill:url(#radialGradient1090-4-26);font-feature-settings:normal;font-variant-alternates:normal;font-variant-caps:normal;font-variant-east-asian:normal;font-variant-ligatures:normal;font-variant-numeric:normal;font-variant-position:normal;font-variation-settings:normal;image-rendering:auto;inline-size:0;isolation:auto;mix-blend-mode:normal;shape-margin:0;shape-padding:0;shape-rendering:auto;solid-color:#000000;stop-color:#000000;text-decoration-color:#000000;text-decoration-line:none;text-decoration-style:solid;text-indent:0;text-orientation:mixed;text-transform:none;white-space:normal"/>
    <path d="m89.515 639.36-3.6381-3.6381c-0.48258-0.48259-1.2722-0.48256-1.7547 0l-3.6381 3.6381h9.0308" style="fill-rule:evenodd;fill:#fff;stroke-width:1.5154"/>
  </g>
  <g id="shade-inactive" transform="translate(-35,-533.36)">
    <rect x="108" y="627.36" width="20" height="20" style="fill:#23252e;stroke-width:.71429"/>
    <path d="m122.52 639.36-3.6381-3.6381c-0.48258-0.48259-1.2722-0.48256-1.7547 0l-3.6381 3.6381h9.0308" style="fill-rule:evenodd;fill:#fff;opacity:.5;stroke-width:1.5154"/>
  </g>
</svg>
