<?xml version="1.0" encoding="UTF-8" standalone="no"?>
<svg
   version="1.1"
   viewBox="0 0 20.031719 20.025186"
   id="svg216"
   sodipodi:docname="__Assets-Dark-Violet.svg"
   width="20.031719"
   height="20.025187"
   xmlns:inkscape="http://www.inkscape.org/namespaces/inkscape"
   xmlns:sodipodi="http://sodipodi.sourceforge.net/DTD/sodipodi-0.dtd"
   xmlns:xlink="http://www.w3.org/1999/xlink"
   xmlns="http://www.w3.org/2000/svg"
   xmlns:svg="http://www.w3.org/2000/svg">
  <sodipodi:namedview
     id="namedview218"
     pagecolor="#ffffff"
     bordercolor="#111111"
     borderopacity="1"
     inkscape:pageshadow="0"
     inkscape:pageopacity="0"
     inkscape:pagecheckerboard="1" />
  <defs
     id="defs30">
    <linearGradient
       id="linearGradient1078">
      <stop
         style="stop-opacity:.149"
         offset="0"
         id="stop2" />
      <stop
         style="stop-opacity:0"
         offset="1"
         id="stop4" />
    </linearGradient>
    <linearGradient
       id="linearGradient1387">
      <stop
         stop-color="#383d4b"
         offset="0"
         id="stop7" />
      <stop
         stop-color="#383d4b"
         offset=".6"
         id="stop9" />
      <stop
         stop-color="#13151a"
         offset="1"
         id="stop11" />
    </linearGradient>
    <clipPath
       id="b">
      <rect
         x="109.41"
         y="196.63"
         width="16"
         height="16"
         opacity="0.3"
         id="rect14" />
    </clipPath>
    <clipPath
       id="a">
      <rect
         x="9.5"
         y="178.85001"
         width="6"
         height="31"
         fill="#ffffff"
         opacity="0.539"
         id="rect17" />
    </clipPath>
    <radialGradient
       id="radialGradient1090-4-5"
       cx="19"
       cy="571.70001"
       r="7.5026002"
       gradientTransform="matrix(1.4225,-5.3748e-7,5.371e-7,1.4225,57.973,-174.87)"
       gradientUnits="userSpaceOnUse"
       xlink:href="#linearGradient1387" />
    <radialGradient
       id="radialGradient1090-7"
       cx="19"
       cy="571.70001"
       r="7.5026002"
       gradientTransform="matrix(1.433,-5.4148e-7,5.4109e-7,1.433,-8.2283,-213.91)"
       gradientUnits="userSpaceOnUse"
       xlink:href="#linearGradient1387" />
    <radialGradient
       id="radialGradient1090-7-3"
       cx="19"
       cy="571.70001"
       r="7.5026002"
       gradientTransform="matrix(1.433,-5.4148e-7,5.4109e-7,1.433,-8.2283,-180.91)"
       gradientUnits="userSpaceOnUse"
       xlink:href="#linearGradient1387" />
    <radialGradient
       id="radialGradient1090-4-5-6"
       cx="19"
       cy="571.70001"
       r="7.5026002"
       gradientTransform="matrix(1.4225,-5.3748e-7,5.371e-7,1.4225,57.973,-207.87)"
       gradientUnits="userSpaceOnUse"
       xlink:href="#linearGradient1387" />
    <linearGradient
       id="linearGradient1080"
       x1="19"
       x2="19"
       y1="562.35999"
       y2="581.25"
       gradientUnits="userSpaceOnUse"
       xlink:href="#linearGradient1078" />
    <linearGradient
       id="linearGradient1080-6"
       x1="19"
       x2="19"
       y1="562.35999"
       y2="581.25"
       gradientTransform="translate(3e-7,33)"
       gradientUnits="userSpaceOnUse"
       xlink:href="#linearGradient1078" />
    <linearGradient
       id="linearGradient1080-62"
       x1="19"
       x2="19"
       y1="562.35999"
       y2="581.25"
       gradientTransform="translate(-2e-7,66)"
       gradientUnits="userSpaceOnUse"
       xlink:href="#linearGradient1078" />
    <clipPath
       id="clipPath6191">
      <path
         d="m 9.5,194.85 v -16 h 16 v 5 h -11 v 11 z"
         style="stroke-width:30.2;stroke-linecap:round;stroke-linejoin:round"
         id="path27" />
    </clipPath>
  </defs>
  <g
     id="close-prelight"
     transform="matrix(1.0573,0,0,1.0573,-44.945821,-594.07265)">
    <rect
       x="42.509998"
       y="561.90002"
       width="18.917"
       height="18.917"
       fill="#23252e"
       stroke-width="0.67561"
       id="rect91" />
    <path
       d="m 51.998,562.35 c -4.959,0 -8.9852,4.0264 -8.9852,8.9852 0,4.9588 4.0261,8.9851 8.9852,8.9851 4.959,0 8.9852,-4.0264 8.9852,-8.9851 0,-4.9587 -4.0261,-8.9852 -8.9852,-8.9852 z"
       color="#000000"
       color-rendering="auto"
       dominant-baseline="auto"
       fill="#962ac3"
       image-rendering="auto"
       shape-rendering="auto"
       solid-color="#000000"
       stop-color="#000000"
       style="stroke:#0d0e11;stroke-width:0.94581"
       id="path93" />
    <path
       d="m 51.998,562.88 c -4.6673,0 -8.4566,3.7896 -8.4566,8.4566 0,4.667 3.7893,8.4566 8.4566,8.4566 4.6673,0 8.4566,-3.7896 8.4566,-8.4566 0,-4.667 -3.7893,-8.4566 -8.4566,-8.4566 z"
       color="#000000"
       color-rendering="auto"
       dominant-baseline="auto"
       fill="#fff"
       image-rendering="auto"
       opacity=".1"
       shape-rendering="auto"
       solid-color="#000000"
       stop-color="#000000"
       style="opacity:0.2;fill:#ffffff"
       id="path95" />
    <path
       d="m 49.163,568.5 h 0.7091 c 0.0076,-9e-5 0.01474,-3.3e-4 0.02213,0 0.18079,0.008 0.36155,0.0912 0.4875,0.22165 l 1.6175,1.6182 1.6398,-1.6182 c 0.18835,-0.1635 0.31673,-0.21669 0.4875,-0.22165 h 0.7091 v 0.70932 c 0,0.2032 -0.0243,0.39059 -0.17727,0.532 l -1.6175,1.6182 1.5954,1.596 c 0.13344,0.13348 0.19942,0.32164 0.19942,0.50984 v 0.70933 h -0.7091 c -0.18812,-1e-5 -0.37622,-0.066 -0.50966,-0.19951 l -1.6175,-1.6181 -1.6175,1.6181 c -0.13343,0.1335 -0.32155,0.19951 -0.50967,0.19951 h -0.7091 v -0.70933 c 0,-0.18818 0.06599,-0.37636 0.19944,-0.50984 l 1.6175,-1.596 -1.6175,-1.6182 c -0.14942,-0.13806 -0.21496,-0.33286 -0.19944,-0.532 V 568.5 Z"
       color="#bebebe"
       enable-background="new"
       fill="#fff"
       stroke-width="1.092"
       style="fill:#010101"
       id="path97" />
  </g>
</svg>
