<?xml version="1.0" encoding="UTF-8" standalone="no"?>
<svg
   xmlns:dc="http://purl.org/dc/elements/1.1/"
   xmlns:cc="http://creativecommons.org/ns#"
   xmlns:rdf="http://www.w3.org/1999/02/22-rdf-syntax-ns#"
   xmlns:svg="http://www.w3.org/2000/svg"
   xmlns="http://www.w3.org/2000/svg"
   xmlns:xlink="http://www.w3.org/1999/xlink"
   xmlns:sodipodi="http://sodipodi.sourceforge.net/DTD/sodipodi-0.dtd"
   xmlns:inkscape="http://www.inkscape.org/namespaces/inkscape"
   version="1.1"
   viewBox="0 0 20 19.999999"
   id="svg213"
   sodipodi:docname="assets-Black-dark.svg"
   width="20"
   height="20">
  <metadata
     id="metadata217">
    <rdf:RDF>
      <cc:Work
         rdf:about="">
        <dc:format>image/svg+xml</dc:format>
        <dc:type
           rdf:resource="http://purl.org/dc/dcmitype/StillImage" />
      </cc:Work>
    </rdf:RDF>
  </metadata>
  <sodipodi:namedview
     pagecolor="#ffffff"
     bordercolor="#666666"
     borderopacity="1"
     objecttolerance="10"
     gridtolerance="10"
     guidetolerance="10"
     inkscape:pageopacity="0"
     inkscape:pageshadow="2"
     inkscape:window-width="640"
     inkscape:window-height="480"
     id="namedview215" />
  <defs
     id="defs21">
    <linearGradient
       id="linearGradient1387">
      <stop
         stop-color="#383d4b"
         offset="0"
         id="stop2" />
      <stop
         stop-color="#383d4b"
         offset=".6"
         id="stop4" />
      <stop
         stop-color="#13151a"
         offset="1"
         id="stop6" />
    </linearGradient>
    <clipPath
       id="b">
      <rect
         x="109.41"
         y="196.63"
         width="16"
         height="16"
         opacity="0.3"
         id="rect9" />
    </clipPath>
    <clipPath
       id="a">
      <rect
         x="9.5"
         y="178.85001"
         width="5"
         height="28"
         fill="#ffffff"
         opacity="0.539"
         id="rect12" />
    </clipPath>
    <radialGradient
       id="radialGradient1090-4-5"
       cx="19"
       cy="571.70001"
       r="7.5026002"
       gradientTransform="matrix(1.4225,-5.3748e-7,5.371e-7,1.4225,57.973,-174.87)"
       gradientUnits="userSpaceOnUse"
       xlink:href="#linearGradient1387" />
    <radialGradient
       id="radialGradient1090-7"
       cx="19"
       cy="571.70001"
       r="7.5026002"
       gradientTransform="matrix(1.433,-5.4148e-7,5.4109e-7,1.433,-8.2283,-213.91)"
       gradientUnits="userSpaceOnUse"
       xlink:href="#linearGradient1387" />
    <radialGradient
       id="radialGradient1090-7-3"
       cx="19"
       cy="571.70001"
       r="7.5026002"
       gradientTransform="matrix(1.433,-5.4148e-7,5.4109e-7,1.433,-8.2283,-180.91)"
       gradientUnits="userSpaceOnUse"
       xlink:href="#linearGradient1387" />
    <radialGradient
       id="radialGradient1090-4-5-6"
       cx="19"
       cy="571.70001"
       r="7.5026002"
       gradientTransform="matrix(1.4225,-5.3748e-7,5.371e-7,1.4225,57.973,-207.87)"
       gradientUnits="userSpaceOnUse"
       xlink:href="#linearGradient1387" />
    <radialGradient
       id="radialGradient1090-4-5-7"
       cx="19"
       cy="571.70001"
       r="7.5026002"
       gradientTransform="matrix(1.4225,-5.3748e-7,5.371e-7,1.4225,57.973,-207.87)"
       gradientUnits="userSpaceOnUse"
       xlink:href="#linearGradient1387" />
    <radialGradient
       id="radialGradient1090-4-5-73"
       cx="19"
       cy="571.70001"
       r="7.5026002"
       gradientTransform="matrix(1.4225,-5.3748e-7,5.371e-7,1.4225,57.973,-174.87)"
       gradientUnits="userSpaceOnUse"
       xlink:href="#linearGradient1387" />
  </defs>
  <g
     id="close-active"
     transform="translate(-9,-561.35999)">
    <rect
       x="9"
       y="561.35999"
       width="20"
       height="20"
       fill="#23252e"
       stroke-width="0.71429"
       id="rect71" />
    <path
       d="m 19,562.36 c -4.9637,0 -9,4.0363 -9,9 0,4.9638 4.0363,9 9,9 4.9637,0 9,-4.0363 9,-9 0,-4.9637 -4.0363,-9 -9,-9 z"
       color="#000000"
       color-rendering="auto"
       dominant-baseline="auto"
       fill="#000000"
       image-rendering="auto"
       shape-rendering="auto"
       solid-color="#000000"
       stop-color="#000000"
       id="path73" />
    <path
       d="m 15.003,566.36 h 0.99968 c 0.01066,-1.4e-4 0.02079,-4.8e-4 0.0312,0 0.25487,0.0107 0.5097,0.12853 0.68728,0.31249 l 2.2804,2.2813 2.3118,-2.2813 c 0.26553,-0.23051 0.44652,-0.3055 0.68727,-0.31249 h 0.99968 v 1 c 0,0.28648 -0.03426,0.55066 -0.24991,0.75002 l -2.2804,2.2813 2.2492,2.25 c 0.18813,0.18818 0.28115,0.45345 0.28115,0.71877 v 1 h -0.99968 c -0.2652,-10e-6 -0.5304,-0.093 -0.71851,-0.28128 l -2.2804,-2.2812 -2.2804,2.2812 c -0.1881,0.18821 -0.45332,0.28128 -0.71853,0.28128 h -0.99968 v -1 c 0,-0.2653 0.09303,-0.53059 0.28117,-0.71877 l 2.2804,-2.25 -2.2804,-2.2813 c -0.21066,-0.19464 -0.30305,-0.46926 -0.28117,-0.75002 v -1 z"
       color="#bebebe"
       enable-background="new"
       opacity="0.2"
       stroke-width="1.3332"
       id="path75" />
    <path
       d="m 15.003,567.36 h 0.99968 c 0.01066,-1.4e-4 0.02079,-4.8e-4 0.0312,0 0.25487,0.0107 0.5097,0.12853 0.68728,0.31249 l 2.2804,2.2813 2.3118,-2.2813 c 0.26553,-0.23051 0.44652,-0.3055 0.68727,-0.31249 h 0.99968 v 1 c 0,0.28648 -0.03426,0.55066 -0.24991,0.75002 l -2.2804,2.2813 2.2492,2.25 c 0.18813,0.18818 0.28115,0.45345 0.28115,0.71877 v 1 h -0.99968 c -0.2652,-10e-6 -0.5304,-0.093 -0.71851,-0.28128 l -2.2804,-2.2812 -2.2804,2.2812 c -0.1881,0.18821 -0.45332,0.28128 -0.71853,0.28128 h -0.99968 v -1 c 0,-0.2653 0.09303,-0.53059 0.28117,-0.71877 l 2.2804,-2.25 -2.2804,-2.2813 c -0.21066,-0.19464 -0.30305,-0.46926 -0.28117,-0.75002 v -1 z"
       color="#bebebe"
       enable-background="new"
       stroke-width="1.3332"
       id="path77" />
  </g>
</svg>
