<?xml version="1.0" encoding="UTF-8" standalone="no"?>
<svg
   version="1.1"
   viewBox="0 0 20 19.999999"
   id="svg212"
   sodipodi:docname="__Assets-Light-Grey.svg"
   width="20"
   height="20"
   xmlns:inkscape="http://www.inkscape.org/namespaces/inkscape"
   xmlns:sodipodi="http://sodipodi.sourceforge.net/DTD/sodipodi-0.dtd"
   xmlns:xlink="http://www.w3.org/1999/xlink"
   xmlns="http://www.w3.org/2000/svg"
   xmlns:svg="http://www.w3.org/2000/svg">
  <sodipodi:namedview
     id="namedview214"
     pagecolor="#ffffff"
     bordercolor="#111111"
     borderopacity="1"
     inkscape:pageshadow="0"
     inkscape:pageopacity="0"
     inkscape:pagecheckerboard="1" />
  <defs
     id="defs32">
    <linearGradient
       id="linearGradient1168">
      <stop
         style="stop-opacity:.05"
         offset="0"
         id="stop2" />
      <stop
         style="stop-opacity:0"
         offset="1"
         id="stop4" />
    </linearGradient>
    <linearGradient
       id="linearGradient1086">
      <stop
         stop-color="#fff"
         offset="0"
         id="stop7" />
      <stop
         stop-color="#fff"
         offset=".6"
         id="stop9" />
      <stop
         stop-color="#bababa"
         offset="1"
         id="stop11" />
    </linearGradient>
    <radialGradient
       id="radialGradient1090-7-9"
       cx="19"
       cy="571.70001"
       r="7.5026002"
       gradientTransform="matrix(1.433,-5.4148e-7,5.4109e-7,1.433,-8.2283,-213.91)"
       gradientUnits="userSpaceOnUse"
       xlink:href="#linearGradient1086" />
    <radialGradient
       id="radialGradient1090-7-93"
       cx="19"
       cy="571.70001"
       r="7.5026002"
       gradientTransform="matrix(1.433,-5.4148e-7,5.4109e-7,1.433,-8.2283,-180.9)"
       gradientUnits="userSpaceOnUse"
       xlink:href="#linearGradient1086" />
    <radialGradient
       id="radialGradient1090-4-5"
       cx="19"
       cy="571.70001"
       r="7.5026002"
       gradientTransform="matrix(1.4224,-5.3748e-7,5.371e-7,1.4224,57.973,-174.87)"
       gradientUnits="userSpaceOnUse"
       xlink:href="#linearGradient1086" />
    <radialGradient
       id="radialGradient1090-4-5-7"
       cx="19"
       cy="571.70001"
       r="7.5026002"
       gradientTransform="matrix(1.4224,-5.3748e-7,5.371e-7,1.4224,57.973,-207.87)"
       gradientUnits="userSpaceOnUse"
       xlink:href="#linearGradient1086" />
    <radialGradient
       id="radialGradient1090-4-5-7-3"
       cx="19"
       cy="571.70001"
       r="7.5026002"
       gradientTransform="matrix(1.4224,-5.3748e-7,5.371e-7,1.4224,57.973,-174.87)"
       gradientUnits="userSpaceOnUse"
       xlink:href="#linearGradient1086" />
    <radialGradient
       id="radialGradient1090-4-5-7-5"
       cx="19"
       cy="571.70001"
       r="7.5026002"
       gradientTransform="matrix(1.4224,-5.3748e-7,5.371e-7,1.4224,57.973,-207.87)"
       gradientUnits="userSpaceOnUse"
       xlink:href="#linearGradient1086" />
    <linearGradient
       id="linearGradient1080"
       x1="19"
       x2="19"
       y1="562.35999"
       y2="581.25"
       gradientUnits="userSpaceOnUse"
       xlink:href="#linearGradient1168" />
    <linearGradient
       id="linearGradient1080-2"
       x1="19"
       x2="19"
       y1="562.35999"
       y2="581.25"
       gradientTransform="translate(2.7e-7,33)"
       gradientUnits="userSpaceOnUse"
       xlink:href="#linearGradient1168" />
    <linearGradient
       id="linearGradient1080-7"
       x1="19"
       x2="19"
       y1="562.35999"
       y2="581.25"
       gradientTransform="translate(-2.9e-7,66)"
       gradientUnits="userSpaceOnUse"
       xlink:href="#linearGradient1168" />
    <clipPath
       id="a-9">
      <rect
         x="9.5"
         y="178.85001"
         width="6"
         height="31"
         fill="#ffffff"
         opacity="0.539"
         id="rect23" />
    </clipPath>
    <clipPath
       id="b-8">
      <rect
         x="109.41"
         y="196.63"
         width="16"
         height="16"
         opacity="0.3"
         id="rect26" />
    </clipPath>
    <clipPath
       id="clipPath6191">
      <path
         d="m 9.5,194.85 v -16 h 16 v 5 h -11 v 11 z"
         style="stroke-width:30.2;stroke-linecap:round;stroke-linejoin:round"
         id="path29" />
    </clipPath>
  </defs>
  <g
     id="close-active"
     transform="translate(-9,-561.35999)">
    <rect
       x="9"
       y="561.35999"
       width="20"
       height="20"
       fill="#ffffff"
       stroke-width="0.71429"
       id="rect34" />
    <path
       d="m 19,562.36 c -4.9637,0 -9,4.0363 -9,9 0,4.9638 4.0363,9 9,9 4.9637,0 9,-4.0363 9,-9 0,-4.9637 -4.0363,-9 -9,-9 z"
       color="#000000"
       color-rendering="auto"
       dominant-baseline="auto"
       fill="#737680"
       image-rendering="auto"
       shape-rendering="auto"
       solid-color="#000000"
       stop-color="#000000"
       id="path36" />
    <path
       d="m 15.003,567.36 h 0.99968 c 0.01066,-1.4e-4 0.02079,-4.8e-4 0.0312,0 0.25487,0.0107 0.5097,0.12852 0.68728,0.31248 l 2.2804,2.2813 2.3118,-2.2813 c 0.26553,-0.2305 0.44652,-0.30549 0.68727,-0.31248 h 0.99968 v 1 c 0,0.28648 -0.03426,0.55065 -0.24991,0.75002 l -2.2804,2.2813 2.2492,2.25 c 0.18813,0.18817 0.28115,0.45345 0.28115,0.71877 v 1 h -0.99968 c -0.2652,-10e-6 -0.5304,-0.093 -0.71851,-0.28127 l -2.2804,-2.2812 -2.2804,2.2812 c -0.1881,0.18821 -0.45332,0.28127 -0.71853,0.28127 h -0.99968 v -1 c 0,-0.2653 0.09303,-0.5306 0.28117,-0.71877 l 2.2804,-2.25 -2.2804,-2.2813 c -0.21066,-0.19464 -0.30305,-0.46926 -0.28117,-0.75002 v -1 z"
       color="#bebebe"
       enable-background="new"
       fill="#ffffff"
       stroke-width="1.3332"
       id="path38" />
    <path
       d="m 19,563.36 c -4.4122,0 -8,3.5878 -8,8 0,4.4123 3.5878,8 8,8 4.4122,0 8,-3.5878 8,-8 0,-4.4122 -3.5878,-8 -8,-8 z"
       color="#000000"
       color-rendering="auto"
       dominant-baseline="auto"
       fill="#737680"
       image-rendering="auto"
       shape-rendering="auto"
       solid-color="#000000"
       stop-color="#000000"
       style="fill:url(#linearGradient1080);stroke-width:0.889"
       id="path40" />
  </g>
</svg>
