<?xml version="1.0" encoding="UTF-8" standalone="no"?>
<svg
   version="1.1"
   viewBox="0 0 20.031719 20.025186"
   id="svg212"
   sodipodi:docname="__Assets-Light-Grey.svg"
   width="20.031719"
   height="20.025187"
   xmlns:inkscape="http://www.inkscape.org/namespaces/inkscape"
   xmlns:sodipodi="http://sodipodi.sourceforge.net/DTD/sodipodi-0.dtd"
   xmlns:xlink="http://www.w3.org/1999/xlink"
   xmlns="http://www.w3.org/2000/svg"
   xmlns:svg="http://www.w3.org/2000/svg">
  <sodipodi:namedview
     id="namedview214"
     pagecolor="#ffffff"
     bordercolor="#111111"
     borderopacity="1"
     inkscape:pageshadow="0"
     inkscape:pageopacity="0"
     inkscape:pagecheckerboard="1" />
  <defs
     id="defs32">
    <linearGradient
       id="linearGradient1168">
      <stop
         style="stop-opacity:.05"
         offset="0"
         id="stop2" />
      <stop
         style="stop-opacity:0"
         offset="1"
         id="stop4" />
    </linearGradient>
    <linearGradient
       id="linearGradient1086">
      <stop
         stop-color="#fff"
         offset="0"
         id="stop7" />
      <stop
         stop-color="#fff"
         offset=".6"
         id="stop9" />
      <stop
         stop-color="#bababa"
         offset="1"
         id="stop11" />
    </linearGradient>
    <radialGradient
       id="radialGradient1090-7-9"
       cx="19"
       cy="571.70001"
       r="7.5026002"
       gradientTransform="matrix(1.433,-5.4148e-7,5.4109e-7,1.433,-8.2283,-213.91)"
       gradientUnits="userSpaceOnUse"
       xlink:href="#linearGradient1086" />
    <radialGradient
       id="radialGradient1090-7-93"
       cx="19"
       cy="571.70001"
       r="7.5026002"
       gradientTransform="matrix(1.433,-5.4148e-7,5.4109e-7,1.433,-8.2283,-180.9)"
       gradientUnits="userSpaceOnUse"
       xlink:href="#linearGradient1086" />
    <radialGradient
       id="radialGradient1090-4-5"
       cx="19"
       cy="571.70001"
       r="7.5026002"
       gradientTransform="matrix(1.4224,-5.3748e-7,5.371e-7,1.4224,57.973,-174.87)"
       gradientUnits="userSpaceOnUse"
       xlink:href="#linearGradient1086" />
    <radialGradient
       id="radialGradient1090-4-5-7"
       cx="19"
       cy="571.70001"
       r="7.5026002"
       gradientTransform="matrix(1.4224,-5.3748e-7,5.371e-7,1.4224,57.973,-207.87)"
       gradientUnits="userSpaceOnUse"
       xlink:href="#linearGradient1086" />
    <radialGradient
       id="radialGradient1090-4-5-7-3"
       cx="19"
       cy="571.70001"
       r="7.5026002"
       gradientTransform="matrix(1.4224,-5.3748e-7,5.371e-7,1.4224,57.973,-174.87)"
       gradientUnits="userSpaceOnUse"
       xlink:href="#linearGradient1086" />
    <radialGradient
       id="radialGradient1090-4-5-7-5"
       cx="19"
       cy="571.70001"
       r="7.5026002"
       gradientTransform="matrix(1.4224,-5.3748e-7,5.371e-7,1.4224,57.973,-207.87)"
       gradientUnits="userSpaceOnUse"
       xlink:href="#linearGradient1086" />
    <linearGradient
       id="linearGradient1080"
       x1="19"
       x2="19"
       y1="562.35999"
       y2="581.25"
       gradientUnits="userSpaceOnUse"
       xlink:href="#linearGradient1168" />
    <linearGradient
       id="linearGradient1080-2"
       x1="19"
       x2="19"
       y1="562.35999"
       y2="581.25"
       gradientTransform="translate(2.7e-7,33)"
       gradientUnits="userSpaceOnUse"
       xlink:href="#linearGradient1168" />
    <linearGradient
       id="linearGradient1080-7"
       x1="19"
       x2="19"
       y1="562.35999"
       y2="581.25"
       gradientTransform="translate(-2.9e-7,66)"
       gradientUnits="userSpaceOnUse"
       xlink:href="#linearGradient1168" />
    <clipPath
       id="a-9">
      <rect
         x="9.5"
         y="178.85001"
         width="6"
         height="31"
         fill="#ffffff"
         opacity="0.539"
         id="rect23" />
    </clipPath>
    <clipPath
       id="b-8">
      <rect
         x="109.41"
         y="196.63"
         width="16"
         height="16"
         opacity="0.3"
         id="rect26" />
    </clipPath>
    <clipPath
       id="clipPath6191">
      <path
         d="m 9.5,194.85 v -16 h 16 v 5 h -11 v 11 z"
         style="stroke-width:30.2;stroke-linecap:round;stroke-linejoin:round"
         id="path29" />
    </clipPath>
  </defs>
  <g
     id="close-prelight"
     transform="matrix(1.0573,0,0,1.0573,-44.945821,-594.07265)">
    <rect
       x="42.509998"
       y="561.90002"
       width="18.917"
       height="18.917"
       fill="#ffffff"
       stroke-width="0.67561"
       id="rect43" />
    <path
       d="m 51.998,562.35 c -4.959,0 -8.9852,4.0264 -8.9852,8.9852 0,4.9587 4.0261,8.9852 8.9852,8.9852 4.9591,0 8.9852,-4.0264 8.9852,-8.9852 0,-4.9587 -4.0261,-8.9852 -8.9852,-8.9852 z"
       color="#000000"
       color-rendering="auto"
       dominant-baseline="auto"
       fill="#737680"
       image-rendering="auto"
       shape-rendering="auto"
       solid-color="#000000"
       stop-color="#000000"
       style="stroke:#d9d9d9;stroke-width:0.94581"
       id="path45" />
    <path
       d="m 51.998,562.82 c -4.698,0 -8.5122,3.8145 -8.5122,8.5122 0,4.6977 3.8142,8.5122 8.5122,8.5122 4.698,0 8.5122,-3.8145 8.5122,-8.5122 0,-4.6977 -3.8142,-8.5122 -8.5122,-8.5122 z"
       color="#000000"
       color-rendering="auto"
       dominant-baseline="auto"
       fill="#fff"
       image-rendering="auto"
       opacity=".1"
       shape-rendering="auto"
       solid-color="#000000"
       stop-color="#000000"
       style="opacity:0.2;fill:#ffffff"
       id="path47" />
    <path
       d="m 49.163,568.49 h 0.7091 c 0.0076,-9e-5 0.01474,-3.3e-4 0.02213,0 0.18079,0.008 0.36155,0.0912 0.4875,0.22166 l 1.6175,1.6182 1.6398,-1.6182 c 0.18835,-0.1635 0.31673,-0.2167 0.4875,-0.22166 h 0.7091 v 0.70933 c 0,0.20321 -0.0243,0.3906 -0.17727,0.53201 l -1.6175,1.6182 1.5954,1.596 c 0.13344,0.13348 0.19942,0.32165 0.19942,0.50984 v 0.70935 h -0.7091 c -0.18812,-10e-6 -0.37622,-0.066 -0.50966,-0.19951 l -1.6175,-1.6181 -1.6175,1.6181 c -0.13343,0.1335 -0.32155,0.19951 -0.50967,0.19951 h -0.7091 v -0.70935 c 0,-0.18818 0.06599,-0.37636 0.19944,-0.50984 l 1.6175,-1.596 -1.6175,-1.6182 c -0.14942,-0.13806 -0.21496,-0.33286 -0.19944,-0.53201 V 568.49 Z"
       color="#bebebe"
       enable-background="new"
       fill="#fff"
       stroke-width="1.2609"
       style="fill:#ffffff"
       id="path49" />
  </g>
</svg>
