<?xml version="1.0" encoding="UTF-8" standalone="no"?>
<svg
   version="1.1"
   viewBox="0 0 20 19.999999"
   id="svg216"
   sodipodi:docname="__Assets-Dark-Blue.svg"
   width="20"
   height="20"
   xmlns:inkscape="http://www.inkscape.org/namespaces/inkscape"
   xmlns:sodipodi="http://sodipodi.sourceforge.net/DTD/sodipodi-0.dtd"
   xmlns:xlink="http://www.w3.org/1999/xlink"
   xmlns="http://www.w3.org/2000/svg"
   xmlns:svg="http://www.w3.org/2000/svg">
  <sodipodi:namedview
     id="namedview218"
     pagecolor="#ffffff"
     bordercolor="#111111"
     borderopacity="1"
     inkscape:pageshadow="0"
     inkscape:pageopacity="0"
     inkscape:pagecheckerboard="1" />
  <defs
     id="defs30">
    <linearGradient
       id="linearGradient1078">
      <stop
         style="stop-opacity:.149"
         offset="0"
         id="stop2" />
      <stop
         style="stop-opacity:0"
         offset="1"
         id="stop4" />
    </linearGradient>
    <linearGradient
       id="linearGradient1387">
      <stop
         stop-color="#383d4b"
         offset="0"
         id="stop7" />
      <stop
         stop-color="#383d4b"
         offset=".6"
         id="stop9" />
      <stop
         stop-color="#13151a"
         offset="1"
         id="stop11" />
    </linearGradient>
    <clipPath
       id="b">
      <rect
         x="109.41"
         y="196.63"
         width="16"
         height="16"
         opacity="0.3"
         id="rect14" />
    </clipPath>
    <clipPath
       id="a">
      <rect
         x="9.5"
         y="178.85001"
         width="6"
         height="31"
         fill="#ffffff"
         opacity="0.539"
         id="rect17" />
    </clipPath>
    <radialGradient
       id="radialGradient1090-4-5"
       cx="19"
       cy="571.70001"
       r="7.5026002"
       gradientTransform="matrix(1.4225,-5.3748e-7,5.371e-7,1.4225,57.973,-174.87)"
       gradientUnits="userSpaceOnUse"
       xlink:href="#linearGradient1387" />
    <radialGradient
       id="radialGradient1090-7"
       cx="19"
       cy="571.70001"
       r="7.5026002"
       gradientTransform="matrix(1.433,-5.4148e-7,5.4109e-7,1.433,-8.2283,-213.91)"
       gradientUnits="userSpaceOnUse"
       xlink:href="#linearGradient1387" />
    <radialGradient
       id="radialGradient1090-7-3"
       cx="19"
       cy="571.70001"
       r="7.5026002"
       gradientTransform="matrix(1.433,-5.4148e-7,5.4109e-7,1.433,-8.2283,-180.91)"
       gradientUnits="userSpaceOnUse"
       xlink:href="#linearGradient1387" />
    <radialGradient
       id="radialGradient1090-4-5-6"
       cx="19"
       cy="571.70001"
       r="7.5026002"
       gradientTransform="matrix(1.4225,-5.3748e-7,5.371e-7,1.4225,57.973,-207.87)"
       gradientUnits="userSpaceOnUse"
       xlink:href="#linearGradient1387" />
    <linearGradient
       id="linearGradient1080"
       x1="19"
       x2="19"
       y1="562.35999"
       y2="581.25"
       gradientUnits="userSpaceOnUse"
       xlink:href="#linearGradient1078" />
    <linearGradient
       id="linearGradient1080-6"
       x1="19"
       x2="19"
       y1="562.35999"
       y2="581.25"
       gradientTransform="translate(3e-7,33)"
       gradientUnits="userSpaceOnUse"
       xlink:href="#linearGradient1078" />
    <linearGradient
       id="linearGradient1080-62"
       x1="19"
       x2="19"
       y1="562.35999"
       y2="581.25"
       gradientTransform="translate(-2e-7,66)"
       gradientUnits="userSpaceOnUse"
       xlink:href="#linearGradient1078" />
    <clipPath
       id="clipPath6191">
      <path
         d="m 9.5,194.85 v -16 h 16 v 5 h -11 v 11 z"
         style="stroke-width:30.2;stroke-linecap:round;stroke-linejoin:round"
         id="path27" />
    </clipPath>
  </defs>
  <g
     id="close-pressed"
     transform="translate(-75,-561.35999)">
    <rect
       x="75"
       y="561.35999"
       width="20"
       height="20"
       fill="#23252e"
       stroke-width="0.71429"
       id="rect100" />
    <path
       d="m 85,562.36 c -4.9638,0 -9,4.0362 -9,9 0,4.9638 4.0362,9 9,9 4.9638,0 9,-4.0362 9,-9 0,-4.9638 -4.0362,-9 -9,-9 z"
       color="#000000"
       color-rendering="auto"
       dominant-baseline="auto"
       fill="#2777ff"
       image-rendering="auto"
       shape-rendering="auto"
       solid-color="#000000"
       stop-color="#000000"
       style="stroke-width:1.01"
       id="path102" />
    <path
       d="m 82.002,568.36 h 0.74972 c 0.008,-9e-5 0.01559,-3.5e-4 0.02339,0 0.19115,0.008 0.38226,0.0964 0.51543,0.23436 l 1.7102,1.7109 1.7338,-1.7109 c 0.19914,-0.17286 0.33488,-0.22911 0.51543,-0.23436 h 0.74972 v 0.74998 c 0,0.21484 -0.02569,0.41297 -0.18743,0.56248 l -1.7102,1.7109 1.6868,1.6874 c 0.14109,0.14112 0.21085,0.34008 0.21085,0.53905 v 0.74998 h -0.74972 c -0.19889,0 -0.39778,-0.0698 -0.53886,-0.21093 l -1.7102,-1.7108 -1.7102,1.7108 c -0.14108,0.14114 -0.33997,0.21093 -0.53887,0.21093 h -0.74972 v -0.74998 c 0,-0.19896 0.06977,-0.39793 0.21086,-0.53905 l 1.7102,-1.6874 -1.7102,-1.7109 c -0.15799,-0.14597 -0.22728,-0.35193 -0.21086,-0.56248 V 568.36 Z"
       color="#bebebe"
       enable-background="new"
       opacity="0.5"
       stroke-width="1.1545"
       id="path104" />
  </g>
</svg>
