<?xml version="1.0" encoding="UTF-8" standalone="no"?>
<svg
   xmlns:dc="http://purl.org/dc/elements/1.1/"
   xmlns:cc="http://creativecommons.org/ns#"
   xmlns:rdf="http://www.w3.org/1999/02/22-rdf-syntax-ns#"
   xmlns:svg="http://www.w3.org/2000/svg"
   xmlns="http://www.w3.org/2000/svg"
   xmlns:xlink="http://www.w3.org/1999/xlink"
   xmlns:sodipodi="http://sodipodi.sourceforge.net/DTD/sodipodi-0.dtd"
   xmlns:inkscape="http://www.inkscape.org/namespaces/inkscape"
   version="1.1"
   viewBox="0 0 20.000944 20.000944"
   id="svg228"
   sodipodi:docname="assets-Cyan-dark.svg"
   width="20.000944"
   height="20.000944">
  <metadata
     id="metadata232">
    <rdf:RDF>
      <cc:Work
         rdf:about="">
        <dc:format>image/svg+xml</dc:format>
        <dc:type
           rdf:resource="http://purl.org/dc/dcmitype/StillImage" />
      </cc:Work>
    </rdf:RDF>
  </metadata>
  <sodipodi:namedview
     pagecolor="#ffffff"
     bordercolor="#666666"
     borderopacity="1"
     objecttolerance="10"
     gridtolerance="10"
     guidetolerance="10"
     inkscape:pageopacity="0"
     inkscape:pageshadow="2"
     inkscape:window-width="640"
     inkscape:window-height="480"
     id="namedview230" />
  <defs
     id="defs38">
    <linearGradient
       id="linearGradient1387">
      <stop
         style="stop-color:#383d4b"
         offset="0"
         id="stop2" />
      <stop
         style="stop-color:#383d4b"
         offset=".6"
         id="stop4" />
      <stop
         style="stop-color:#13151a"
         offset="1"
         id="stop6" />
    </linearGradient>
    <clipPath
       id="b">
      <rect
         x="109.41"
         y="196.63"
         width="16"
         height="16"
         style="opacity:0.3;paint-order:normal"
         id="rect9" />
    </clipPath>
    <clipPath
       id="a">
      <rect
         x="9.5"
         y="178.85001"
         width="5"
         height="28"
         style="opacity:0.539;fill:#ffffff;paint-order:normal"
         id="rect12" />
    </clipPath>
    <filter
       id="filter4189-0"
       x="-0.048"
       y="-0.048"
       width="1.096"
       height="1.096"
       style="color-interpolation-filters:sRGB">
      <feGaussianBlur
         stdDeviation="0.32"
         id="feGaussianBlur15" />
    </filter>
    <radialGradient
       id="radialGradient1090-4-2"
       cx="19"
       cy="571.70001"
       r="7.5026002"
       gradientTransform="matrix(1.2644,-4.7776e-7,4.7742e-7,1.2644,60.976,-117.62)"
       gradientUnits="userSpaceOnUse"
       xlink:href="#linearGradient1387" />
    <filter
       id="filter4189-1"
       x="-0.048"
       y="-0.048"
       width="1.096"
       height="1.096"
       style="color-interpolation-filters:sRGB">
      <feGaussianBlur
         stdDeviation="0.32"
         id="feGaussianBlur19" />
    </filter>
    <radialGradient
       id="radialGradient1090-4-5"
       cx="19"
       cy="571.70001"
       r="7.5026002"
       gradientTransform="matrix(1.2644,-4.7776e-7,4.7742e-7,1.2644,60.976,-84.618)"
       gradientUnits="userSpaceOnUse"
       xlink:href="#linearGradient1387" />
    <filter
       id="filter4189-1-5"
       x="-0.048"
       y="-0.048"
       width="1.096"
       height="1.096"
       style="color-interpolation-filters:sRGB">
      <feGaussianBlur
         stdDeviation="0.32"
         id="feGaussianBlur23" />
    </filter>
    <filter
       id="filter4189-1-0"
       x="-0.048"
       y="-0.048"
       width="1.096"
       height="1.096"
       style="color-interpolation-filters:sRGB">
      <feGaussianBlur
         stdDeviation="0.32"
         id="feGaussianBlur26" />
    </filter>
    <radialGradient
       id="radialGradient1090-4-26"
       cx="19"
       cy="571.70001"
       r="7.5026002"
       gradientTransform="matrix(1.2644,-4.7776e-7,4.7742e-7,1.2644,60.976,-84.616)"
       gradientUnits="userSpaceOnUse"
       xlink:href="#linearGradient1387" />
    <radialGradient
       id="radialGradient1090-7"
       cx="19"
       cy="571.70001"
       r="7.5026002"
       gradientTransform="matrix(1.2644,-4.7776e-7,4.7742e-7,1.2644,-5.0243,-117.62)"
       gradientUnits="userSpaceOnUse"
       xlink:href="#linearGradient1387" />
    <filter
       id="filter1377-6"
       x="-0.048"
       y="-0.048"
       width="1.096"
       height="1.096"
       style="color-interpolation-filters:sRGB">
      <feGaussianBlur
         stdDeviation="0.32"
         id="feGaussianBlur31" />
    </filter>
    <radialGradient
       id="radialGradient1090-70"
       cx="19"
       cy="571.70001"
       r="7.5026002"
       gradientTransform="matrix(1.2644,-4.7776e-7,4.7742e-7,1.2644,-5.0243,-84.62)"
       gradientUnits="userSpaceOnUse"
       xlink:href="#linearGradient1387" />
    <filter
       id="filter1377-0"
       x="-0.048"
       y="-0.048"
       width="1.096"
       height="1.096"
       style="color-interpolation-filters:sRGB">
      <feGaussianBlur
         stdDeviation="0.32"
         id="feGaussianBlur35" />
    </filter>
  </defs>
  <g
     id="close-prelight"
     transform="matrix(1.0573,0,0,1.0573,-44.945821,-594.0969)">
    <rect
       x="42.509998"
       y="561.90002"
       width="18.917"
       height="18.917"
       style="fill:#23252e;stroke-width:0.67561"
       id="rect99" />
    <path
       d="m 51.969,562.95 c -4.1762,0 -7.5668,3.3908 -7.5668,7.5668 0,4.176 3.3906,7.5668 7.5668,7.5668 4.1762,0 7.5668,-3.3908 7.5668,-7.5668 0,-4.176 -3.3906,-7.5668 -7.5668,-7.5668 z"
       style="color:#000000;font-variant-ligatures:normal;font-variant-position:normal;font-variant-caps:normal;font-variant-numeric:normal;font-variant-alternates:normal;font-variant-east-asian:normal;font-feature-settings:normal;font-variation-settings:normal;text-indent:0;text-decoration:none;text-decoration-line:none;text-decoration-style:solid;text-decoration-color:#000000;text-transform:none;text-orientation:mixed;dominant-baseline:auto;white-space:normal;shape-padding:0;shape-margin:0;inline-size:0;isolation:auto;mix-blend-mode:normal;solid-color:#000000;fill:#0ccfd9;color-rendering:auto;image-rendering:auto;shape-rendering:auto;stop-color:#000000"
       id="path101" />
    <path
       d="m 48.188,567.68 h 0.9455 c 0.01008,-1.3e-4 0.01966,-4.5e-4 0.02951,0 0.24106,0.0101 0.48208,0.12156 0.65003,0.29555 l 2.1568,2.1577 2.1865,-2.1577 c 0.25114,-0.21801 0.42232,-0.28894 0.65002,-0.29555 h 0.9455 v 0.94581 c 0,0.27095 -0.0324,0.52081 -0.23637,0.70937 l -2.1568,2.1577 2.1273,2.1281 c 0.17793,0.17798 0.26591,0.42888 0.26591,0.67982 v 0.94583 h -0.9455 c -0.25083,-10e-6 -0.50165,-0.088 -0.67957,-0.26603 l -2.1568,-2.1576 -2.1568,2.1576 c -0.17791,0.17801 -0.42875,0.26603 -0.67959,0.26603 h -0.9455 v -0.94583 c 0,-0.25092 0.08799,-0.50184 0.26593,-0.67982 l 2.1568,-2.1281 -2.1568,-2.1577 c -0.19924,-0.18409 -0.28663,-0.44383 -0.26593,-0.70937 V 567.68 Z"
       style="color:#bebebe;text-indent:0;text-decoration:none;text-decoration-line:none;text-transform:none;opacity:0.5;stroke-width:1.2609;enable-background:new"
       id="path103" />
    <path
       d="m 48.188,566.73 h 0.9455 c 0.01008,-1.3e-4 0.01966,-4.5e-4 0.02951,0 0.24106,0.0101 0.48208,0.12156 0.65003,0.29555 l 2.1568,2.1577 2.1865,-2.1577 c 0.25114,-0.21801 0.42232,-0.28894 0.65002,-0.29555 h 0.9455 v 0.94581 c 0,0.27095 -0.0324,0.52081 -0.23637,0.70937 l -2.1568,2.1577 2.1273,2.1281 c 0.17793,0.17798 0.26591,0.42888 0.26591,0.67982 v 0.94583 h -0.9455 c -0.25083,-1e-5 -0.50165,-0.088 -0.67957,-0.26603 l -2.1568,-2.1576 -2.1568,2.1576 c -0.17791,0.17801 -0.42875,0.26603 -0.67959,0.26603 h -0.9455 v -0.94583 c 0,-0.25092 0.08799,-0.50184 0.26593,-0.67982 l 2.1568,-2.1281 -2.1568,-2.1577 c -0.19924,-0.18409 -0.28663,-0.44383 -0.26593,-0.70937 V 566.73 Z"
       style="color:#bebebe;text-indent:0;text-decoration:none;text-decoration-line:none;text-transform:none;fill:#ffffff;stroke-width:1.2609;enable-background:new"
       id="path105" />
  </g>
</svg>
