<?xml version="1.0" encoding="UTF-8" standalone="no"?>
<svg
   xmlns:dc="http://purl.org/dc/elements/1.1/"
   xmlns:cc="http://creativecommons.org/ns#"
   xmlns:rdf="http://www.w3.org/1999/02/22-rdf-syntax-ns#"
   xmlns:svg="http://www.w3.org/2000/svg"
   xmlns="http://www.w3.org/2000/svg"
   xmlns:xlink="http://www.w3.org/1999/xlink"
   xmlns:sodipodi="http://sodipodi.sourceforge.net/DTD/sodipodi-0.dtd"
   xmlns:inkscape="http://www.inkscape.org/namespaces/inkscape"
   version="1.1"
   viewBox="0 0 20 19.999999"
   id="svg228"
   sodipodi:docname="assets-Cyan-dark.svg"
   width="20"
   height="20">
  <metadata
     id="metadata232">
    <rdf:RDF>
      <cc:Work
         rdf:about="">
        <dc:format>image/svg+xml</dc:format>
        <dc:type
           rdf:resource="http://purl.org/dc/dcmitype/StillImage" />
      </cc:Work>
    </rdf:RDF>
  </metadata>
  <sodipodi:namedview
     pagecolor="#ffffff"
     bordercolor="#666666"
     borderopacity="1"
     objecttolerance="10"
     gridtolerance="10"
     guidetolerance="10"
     inkscape:pageopacity="0"
     inkscape:pageshadow="2"
     inkscape:window-width="640"
     inkscape:window-height="480"
     id="namedview230" />
  <defs
     id="defs38">
    <linearGradient
       id="linearGradient1387">
      <stop
         style="stop-color:#383d4b"
         offset="0"
         id="stop2" />
      <stop
         style="stop-color:#383d4b"
         offset=".6"
         id="stop4" />
      <stop
         style="stop-color:#13151a"
         offset="1"
         id="stop6" />
    </linearGradient>
    <clipPath
       id="b">
      <rect
         x="109.41"
         y="196.63"
         width="16"
         height="16"
         style="opacity:0.3;paint-order:normal"
         id="rect9" />
    </clipPath>
    <clipPath
       id="a">
      <rect
         x="9.5"
         y="178.85001"
         width="5"
         height="28"
         style="opacity:0.539;fill:#ffffff;paint-order:normal"
         id="rect12" />
    </clipPath>
    <filter
       id="filter4189-0"
       x="-0.048"
       y="-0.048"
       width="1.096"
       height="1.096"
       style="color-interpolation-filters:sRGB">
      <feGaussianBlur
         stdDeviation="0.32"
         id="feGaussianBlur15" />
    </filter>
    <radialGradient
       id="radialGradient1090-4-2"
       cx="19"
       cy="571.70001"
       r="7.5026002"
       gradientTransform="matrix(1.2644,-4.7776e-7,4.7742e-7,1.2644,60.976,-117.62)"
       gradientUnits="userSpaceOnUse"
       xlink:href="#linearGradient1387" />
    <filter
       id="filter4189-1"
       x="-0.048"
       y="-0.048"
       width="1.096"
       height="1.096"
       style="color-interpolation-filters:sRGB">
      <feGaussianBlur
         stdDeviation="0.32"
         id="feGaussianBlur19" />
    </filter>
    <radialGradient
       id="radialGradient1090-4-5"
       cx="19"
       cy="571.70001"
       r="7.5026002"
       gradientTransform="matrix(1.2644,-4.7776e-7,4.7742e-7,1.2644,60.976,-84.618)"
       gradientUnits="userSpaceOnUse"
       xlink:href="#linearGradient1387" />
    <filter
       id="filter4189-1-5"
       x="-0.048"
       y="-0.048"
       width="1.096"
       height="1.096"
       style="color-interpolation-filters:sRGB">
      <feGaussianBlur
         stdDeviation="0.32"
         id="feGaussianBlur23" />
    </filter>
    <filter
       id="filter4189-1-0"
       x="-0.048"
       y="-0.048"
       width="1.096"
       height="1.096"
       style="color-interpolation-filters:sRGB">
      <feGaussianBlur
         stdDeviation="0.32"
         id="feGaussianBlur26" />
    </filter>
    <radialGradient
       id="radialGradient1090-4-26"
       cx="19"
       cy="571.70001"
       r="7.5026002"
       gradientTransform="matrix(1.2644,-4.7776e-7,4.7742e-7,1.2644,60.976,-84.616)"
       gradientUnits="userSpaceOnUse"
       xlink:href="#linearGradient1387" />
    <radialGradient
       id="radialGradient1090-7"
       cx="19"
       cy="571.70001"
       r="7.5026002"
       gradientTransform="matrix(1.2644,-4.7776e-7,4.7742e-7,1.2644,-5.0243,-117.62)"
       gradientUnits="userSpaceOnUse"
       xlink:href="#linearGradient1387" />
    <filter
       id="filter1377-6"
       x="-0.048"
       y="-0.048"
       width="1.096"
       height="1.096"
       style="color-interpolation-filters:sRGB">
      <feGaussianBlur
         stdDeviation="0.32"
         id="feGaussianBlur31" />
    </filter>
    <radialGradient
       id="radialGradient1090-70"
       cx="19"
       cy="571.70001"
       r="7.5026002"
       gradientTransform="matrix(1.2644,-4.7776e-7,4.7742e-7,1.2644,-5.0243,-84.62)"
       gradientUnits="userSpaceOnUse"
       xlink:href="#linearGradient1387" />
    <filter
       id="filter1377-0"
       x="-0.048"
       y="-0.048"
       width="1.096"
       height="1.096"
       style="color-interpolation-filters:sRGB">
      <feGaussianBlur
         stdDeviation="0.32"
         id="feGaussianBlur35" />
    </filter>
  </defs>
  <g
     id="close-active"
     transform="translate(-9,-561.35999)">
    <rect
       x="9"
       y="561.35999"
       width="20"
       height="20"
       style="fill:#23252e;stroke-width:0.71429"
       id="rect88" />
    <g
       id="g92">
      <path
         transform="translate(-1,551.36)"
         d="m 20,12 c -4.4122,0 -8,3.5878 -8,8 0,4.4123 3.5878,8 8,8 4.4122,0 8,-3.5878 8,-8 0,-4.4122 -3.5878,-8 -8,-8 z"
         style="color:#000000;font-variant-ligatures:normal;font-variant-position:normal;font-variant-caps:normal;font-variant-numeric:normal;font-variant-alternates:normal;font-variant-east-asian:normal;font-feature-settings:normal;font-variation-settings:normal;text-indent:0;text-decoration:none;text-decoration-line:none;text-decoration-style:solid;text-decoration-color:#000000;text-transform:none;text-orientation:mixed;dominant-baseline:auto;white-space:normal;shape-padding:0;shape-margin:0;inline-size:0;isolation:auto;mix-blend-mode:normal;solid-color:#000000;fill:#0ccfd9;color-rendering:auto;image-rendering:auto;shape-rendering:auto;stop-color:#000000"
         id="path90" />
    </g>
    <path
       d="m 15.003,566.36 h 0.99968 c 0.01066,-1.4e-4 0.02079,-4.8e-4 0.0312,0 0.25487,0.0107 0.5097,0.12853 0.68728,0.31249 l 2.2804,2.2813 2.3118,-2.2813 c 0.26553,-0.23051 0.44652,-0.3055 0.68727,-0.31249 h 0.99968 v 1 c 0,0.28648 -0.03426,0.55066 -0.24991,0.75002 l -2.2804,2.2813 2.2492,2.25 c 0.18813,0.18818 0.28115,0.45345 0.28115,0.71877 v 1 h -0.99968 c -0.2652,-10e-6 -0.5304,-0.093 -0.71851,-0.28128 l -2.2804,-2.2812 -2.2804,2.2812 c -0.1881,0.18821 -0.45332,0.28128 -0.71853,0.28128 h -0.99968 v -1 c 0,-0.2653 0.09303,-0.53059 0.28117,-0.71877 l 2.2804,-2.25 -2.2804,-2.2813 c -0.21066,-0.19464 -0.30305,-0.46926 -0.28117,-0.75002 v -1 z"
       style="color:#bebebe;text-indent:0;text-decoration:none;text-decoration-line:none;text-transform:none;opacity:0.2;stroke-width:1.3332;enable-background:new"
       id="path94" />
    <path
       d="m 15.003,567.36 h 0.99968 c 0.01066,-1.4e-4 0.02079,-4.8e-4 0.0312,0 0.25487,0.0107 0.5097,0.12853 0.68728,0.31249 l 2.2804,2.2813 2.3118,-2.2813 c 0.26553,-0.23051 0.44652,-0.3055 0.68727,-0.31249 h 0.99968 v 1 c 0,0.28648 -0.03426,0.55066 -0.24991,0.75002 l -2.2804,2.2813 2.2492,2.25 c 0.18813,0.18818 0.28115,0.45345 0.28115,0.71877 v 1 h -0.99968 c -0.2652,-10e-6 -0.5304,-0.093 -0.71851,-0.28128 l -2.2804,-2.2812 -2.2804,2.2812 c -0.1881,0.18821 -0.45332,0.28128 -0.71853,0.28128 h -0.99968 v -1 c 0,-0.2653 0.09303,-0.53059 0.28117,-0.71877 l 2.2804,-2.25 -2.2804,-2.2813 c -0.21066,-0.19464 -0.30305,-0.46926 -0.28117,-0.75002 v -1 z"
       style="color:#bebebe;text-indent:0;text-decoration:none;text-decoration-line:none;text-transform:none;fill:#0d0e11;stroke-width:1.3332;enable-background:new"
       id="path96" />
  </g>
</svg>
